<?xml version="1.0" encoding="UTF-8" standalone="no"?>
<!-- Created with Inkscape (http://www.inkscape.org/) -->

<svg
   xmlns:dc="http://purl.org/dc/elements/1.1/"
   xmlns:cc="http://creativecommons.org/ns#"
   xmlns:rdf="http://www.w3.org/1999/02/22-rdf-syntax-ns#"
   xmlns:svg="http://www.w3.org/2000/svg"
   xmlns="http://www.w3.org/2000/svg"
   xmlns:sodipodi="http://sodipodi.sourceforge.net/DTD/sodipodi-0.dtd"
   xmlns:inkscape="http://www.inkscape.org/namespaces/inkscape"
   width="744.09448819"
   height="1052.3622047"
   id="svg2"
   version="1.1"
   inkscape:version="0.48.4 r9939"
   sodipodi:docname="Logo_GLO.svg">
  <defs
     id="defs4" />
  <sodipodi:namedview
     id="base"
     pagecolor="#ffffff"
     bordercolor="#666666"
     borderopacity="1.0"
     inkscape:pageopacity="0.0"
     inkscape:pageshadow="2"
     inkscape:zoom="2.8"
     inkscape:cx="308.02127"
     inkscape:cy="775.37315"
     inkscape:document-units="px"
     inkscape:current-layer="layer1"
     showgrid="false"
     inkscape:window-width="1600"
     inkscape:window-height="873"
     inkscape:window-x="0"
     inkscape:window-y="27"
     inkscape:window-maximized="1" />
  <metadata
     id="metadata7">
    <rdf:RDF>
      <cc:Work
         rdf:about="">
        <dc:format>image/svg+xml</dc:format>
        <dc:type
           rdf:resource="http://purl.org/dc/dcmitype/StillImage" />
        <dc:title></dc:title>
      </cc:Work>
    </rdf:RDF>
  </metadata>
  <g
     inkscape:label="Layer 1"
     inkscape:groupmode="layer"
     id="layer1">
    <flowRoot
       xml:space="preserve"
       id="flowRoot3007"
       style="fill:black;stroke:none;stroke-opacity:1;stroke-width:1px;stroke-linejoin:miter;stroke-linecap:butt;fill-opacity:1;font-family:Sans;font-style:normal;font-weight:normal;font-size:40px;line-height:125%;letter-spacing:0px;word-spacing:0px"><flowRegion
         id="flowRegion3009"><rect
           id="rect3011"
           width="254.64285"
           height="177.85715"
           x="150.35715"
           y="207.00504" /></flowRegion><flowPara
         id="flowPara3013"></flowPara></flowRoot>    <g
       style="font-size:40px;font-style:normal;font-weight:normal;line-height:125%;letter-spacing:0px;word-spacing:0px;fill:#c33a1a;fill-opacity:1;stroke:none;font-family:Sans"
       id="text3019"
       inkscape:export-filename="/home/franco/Desktop/logo.png"
       inkscape:export-xdpi="90"
       inkscape:export-ydpi="90"
       transform="matrix(1.5017041,0,0,1.5017041,-116.59763,-109.34617)">
      <path
         d="m 275.56223,222.358 -3.51563,2.58789 c -3.02741,-4.06895 -6.836,-7.27533 -11.42578,-9.61914 -4.55735,-2.37624 -9.48898,-3.56439 -14.79492,-3.56446 -5.92452,7e-5 -11.39326,1.46491 -16.40625,4.39453 -4.98049,2.92975 -8.91929,6.91738 -11.81641,11.96289 -2.89715,5.01307 -4.34571,10.49809 -4.3457,16.45508 -1e-5,4.42712 0.84634,8.65888 2.53906,12.69531 1.72525,4.03648 4.03644,7.51955 6.93359,10.44922 2.89712,2.9297 6.36391,5.27345 10.40039,7.03125 4.03643,1.72527 8.2682,2.5879 12.69532,2.58789 5.66401,10e-6 10.93744,-1.3509 15.82031,-4.05273 4.88275,-2.73436 8.80527,-6.4453 11.76758,-11.13281 2.96216,-4.68748 4.62232,-9.8307 4.98047,-15.42969 l -32.56836,0 0,-4.3457 37.01172,0 0,2.19726 c -8e-5,5.04561 -0.97665,9.86331 -2.92969,14.45313 -1.9532,4.55731 -4.58992,8.4961 -7.91016,11.8164 -3.28782,3.32032 -7.22662,5.95704 -11.8164,7.91016 -4.55735,1.95313 -9.3425,2.92969 -14.35547,2.92969 -5.01306,0 -9.79821,-0.97656 -14.35547,-2.92969 -4.55732,-1.95312 -8.47984,-4.58984 -11.76758,-7.91016 -3.28777,-3.3203 -5.90821,-7.25909 -7.86133,-11.8164 -1.95313,-4.58982 -2.92969,-9.40752 -2.92969,-14.45313 0,-5.04553 0.97656,-9.86323 2.92969,-14.45312 1.95312,-4.58979 4.57356,-8.54487 7.86133,-11.86524 3.28774,-3.32024 7.21026,-5.95696 11.76758,-7.91015 4.55726,-1.95306 9.34241,-2.92962 14.35547,-2.92969 5.95698,7e-5 11.55593,1.33471 16.79687,4.00391 5.24082,2.66933 9.55397,6.31516 12.93946,10.9375"
         style="font-size:100px;font-variant:normal;font-stretch:normal;font-family:Sawasdee;-inkscape-font-specification:Sawasdee;fill:#c33a1a;fill-opacity:1"
         id="path3032"
         inkscape:connector-curvature="0" />
      <path
         d="m 331.38058,281.68417 -42.38281,0 0,-72.9004 4.39453,0 0,68.50586 37.98828,0 0,4.39454"
         style="font-size:100px;font-variant:normal;font-stretch:normal;font-family:Sawasdee;-inkscape-font-specification:Sawasdee;fill:#c33a1a;fill-opacity:1"
         id="path3034"
         inkscape:connector-curvature="0" />
      <path
         d="m 323.40793,210.34628 c 4.55726,-1.95306 9.34241,-2.92962 14.35547,-2.92969 5.01297,7e-5 9.79812,0.97663 14.35547,2.92969 4.58978,1.95319 8.52858,4.58991 11.8164,7.91015 3.32024,3.32037 5.95696,7.27545 7.91016,11.86524 1.95304,4.58989 2.92961,9.40759 2.92969,14.45312 -8e-5,5.04561 -0.97665,9.86331 -2.92969,14.45313 -1.9532,4.55731 -4.58992,8.4961 -7.91016,11.8164 -3.28782,3.32032 -7.22662,5.95704 -11.8164,7.91016 -4.55735,1.95313 -9.3425,2.92969 -14.35547,2.92969 -5.01306,0 -9.79821,-0.97656 -14.35547,-2.92969 -4.55732,-1.95312 -8.47984,-4.58984 -11.76758,-7.91016 -3.28777,-3.3203 -5.90821,-7.25909 -7.86133,-11.8164 -1.95313,-4.58982 -2.92969,-9.40752 -2.92969,-14.45313 0,-5.04553 0.97656,-9.86323 2.92969,-14.45312 1.95312,-4.58979 4.57356,-8.54487 7.86133,-11.86524 3.28774,-3.32024 7.21026,-5.95696 11.76758,-7.91015 m -18.21289,34.22851 c -1e-5,4.42712 0.84634,8.65888 2.53906,12.69531 1.72525,4.03648 4.03644,7.51955 6.93359,10.44922 2.89712,2.9297 6.36391,5.27345 10.40039,7.03125 4.03643,1.72527 8.2682,2.5879 12.69532,2.58789 4.45959,10e-6 8.70763,-0.86262 12.74414,-2.58789 4.0364,-1.7578 7.50319,-4.10155 10.40039,-7.03125 2.89706,-2.92967 5.20826,-6.41274 6.93359,-10.44922 1.72519,-4.03643 2.58782,-8.26819 2.58789,-12.69531 -7e-5,-5.95699 -1.44864,-11.44201 -4.3457,-16.45508 -2.8972,-5.04551 -6.86855,-9.03314 -11.91406,-11.96289 -5.01308,-2.92962 -10.48182,-4.39446 -16.40625,-4.39453 -5.92452,7e-5 -11.39326,1.46491 -16.40625,4.39453 -4.98049,2.92975 -8.91929,6.91738 -11.81641,11.96289 -2.89715,5.01307 -4.34571,10.49809 -4.3457,16.45508"
         style="font-size:100px;font-variant:normal;font-stretch:normal;font-family:Sawasdee;-inkscape-font-specification:Sawasdee;fill:#c33a1a;fill-opacity:1"
         id="path3036"
         inkscape:connector-curvature="0" />
    </g>
    <flowRoot
       xml:space="preserve"
       id="flowRoot3023"
       style="fill:black;stroke:none;stroke-opacity:1;stroke-width:1px;stroke-linejoin:miter;stroke-linecap:butt;fill-opacity:1;font-family:Sans;font-style:normal;font-weight:normal;font-size:40px;line-height:125%;letter-spacing:0px;word-spacing:0px"><flowRegion
         id="flowRegion3025"><rect
           id="rect3027"
           width="232.85715"
           height="73.571426"
           x="176.42857"
           y="220.21933" /></flowRegion><flowPara
         id="flowPara3029"></flowPara></flowRoot>    <path
       style="opacity:0.46700003000000001;fill:#c33a1a;fill-opacity:1;fill-rule:nonzero;stroke:none"
       d="m 244.84553,312.42276 c -10.58355,-1.38044 -25.81547,-9.41234 -32.39807,-17.08372 -19.93855,-23.2365 -19.14423,-55.18572 1.89507,-76.22502 16.99584,-16.99584 41.92516,-20.98364 63.35163,-10.13403 5.4952,2.78259 14.28098,9.75369 16.76835,13.30492 1.52092,2.1714 1.49969,2.49415 -0.24814,3.77218 -1.67938,1.228 -2.51389,0.79646 -6.87655,-3.55583 -15.54747,-15.51053 -41.0709,-18.61025 -60.32553,-7.32628 -6.94621,4.07075 -15.52401,13.78172 -19.2988,21.84823 -2.88234,6.15941 -3.41767,8.68545 -3.83652,18.10323 -0.41003,9.21929 -0.12149,12.0426 1.82982,17.90637 7.10141,21.33975 24.51682,34.05869 46.75746,34.14822 25.35645,0.10214 44.76863,-16.73855 49.22598,-42.70495 l 0.59842,-3.4861 -24.64404,0 -24.64404,0 0,-2.6816 0,-2.68163 27.50061,0 27.50058,0 -0.69917,6.82433 c -2.75505,26.8908 -23.76278,47.80449 -50.54776,50.32151 -2.94976,0.27719 -8.30895,0.11969 -11.9093,-0.34983 z"
       id="path3042"
       inkscape:connector-curvature="0"
       inkscape:export-filename="/home/franco/Desktop/logo.png"
       inkscape:export-xdpi="90"
       inkscape:export-ydpi="90" />
    <path
       style="opacity:0.46700003000000001;fill:#c33a1a;fill-opacity:1;fill-rule:nonzero;stroke:none"
       d="m 318.43197,259.51251 0,-54.3001 2.6816,0 2.68163,0 0,50.95068 0,50.95066 21.18475,-0.0474 21.18475,-0.0474 -3.83561,-2.02768 c -5.62332,-2.97273 -15.46384,-13.25942 -19.09141,-19.95699 -9.65802,-17.83162 -9.87578,-35.34782 -0.65751,-52.89018 19.18107,-36.50166 70.56452,-39.13392 93.36542,-4.78292 14.9651,22.54586 12.21673,49.97394 -6.92763,69.13623 -7.27932,7.28613 -12.24462,10.38386 -22.57744,14.08553 -5.42507,1.94349 -9.57812,2.18047 -46.97985,2.68081 l -41.0287,0.54887 0,-54.3001 z m 87.4305,45.68257 c 20.10405,-6.2369 33.85437,-25.35823 33.87668,-47.10923 0.015,-14.64017 -3.81718,-24.3889 -13.63231,-34.67905 -10.4858,-10.99325 -22.46127,-15.57413 -38.51873,-14.73422 -10.77517,0.56362 -17.80288,3.07511 -26.91415,9.61834 -19.67953,14.13276 -25.11915,44.99496 -11.68227,66.28035 5.75507,9.11661 15.97538,17.16989 25.98069,20.47194 8.61941,2.84467 21.99814,2.91044 30.89009,0.15187 l 0,0 z"
       id="path3044"
       inkscape:connector-curvature="0"
       inkscape:export-filename="/home/franco/Desktop/logo.png"
       inkscape:export-xdpi="90"
       inkscape:export-ydpi="90" />
    <path
       style="opacity:0.46700003000000001;fill:#c33a1a;fill-opacity:1;fill-rule:nonzero;stroke:none"
       d="m 247.28352,312.56346 c -10.15174,-0.79857 -24.42177,-7.47459 -32.8103,-15.34979 -3.06156,-2.87421 -7.62371,-9.29779 -10.06575,-14.17273 -4.56107,-9.10507 -6.46015,-17.53814 -6.11161,-27.1391 0.29009,-7.99024 2.04511,-15.01837 5.4366,-21.77122 9.54461,-19.00446 28.6567,-31.05657 49.2491,-31.05657 7.65636,0 16.39687,2.07388 23.66563,5.61522 7.69908,3.75096 18.63721,12.98636 18.63721,15.73594 0,0.7801 -1.53522,1.97889 -2.53426,1.97889 -0.88045,0 -2.13616,-0.92956 -5.24242,-3.88078 -4.06531,-3.8624 -7.88338,-6.62422 -12.01699,-8.69254 -7.36485,-3.68511 -14.71831,-5.39351 -23.21537,-5.39351 -8.1108,0 -14.57788,1.42901 -21.75698,4.80754 -4.69767,2.21077 -7.73679,4.44271 -12.12114,8.90175 -7.6794,7.81025 -12.75388,16.72428 -13.87288,24.36964 -0.77606,5.30241 -1.02922,9.44513 -0.8745,14.31029 0.17387,5.46663 0.59998,8.0963 1.98054,12.22264 6.06819,18.13717 19.46493,30.10516 37.36251,33.37782 4.9069,0.89725 13.14942,1.03035 17.62006,0.28453 11.1402,-1.85848 20.43409,-6.59955 27.44885,-14.00242 5.729,-6.04596 9.77224,-13.18761 12.15259,-21.46537 0.72919,-2.53585 2.04219,-8.75756 2.04219,-9.6771 l 0,-0.56967 -24.53678,0 -24.53676,0 0,-2.68161 0,-2.68162 27.35245,0 c 15.04387,0 27.35248,0.0488 27.35248,0.10857 0,0.41826 -0.87606,7.89663 -1.10249,9.41123 -2.61495,17.49147 -13.25694,32.67017 -28.76843,41.03248 -9.34223,5.03643 -19.90862,7.22907 -30.73355,6.37754 z"
       id="path3050"
       inkscape:connector-curvature="0"
       inkscape:export-filename="/home/franco/Desktop/logo.png"
       inkscape:export-xdpi="90"
       inkscape:export-ydpi="90" />
    <path
       style="opacity:0.46700003000000001;fill:#c33a1a;fill-opacity:1;fill-rule:nonzero;stroke:none"
       d="m 318.61445,259.43032 0,-54.21098 2.54752,0 2.54754,0 0,50.95068 0,50.95067 21.2518,-0.009 c 17.31291,-0.007 21.1682,-0.0721 20.80078,-0.35142 -0.24805,-0.18858 -1.39445,-0.85099 -2.54753,-1.47203 -3.29349,-1.77383 -5.53331,-3.57964 -10.01243,-8.07229 -5.95079,-5.96879 -8.75326,-9.79342 -11.65089,-15.90042 -5.54082,-11.67773 -6.95672,-24.08345 -4.05761,-35.55175 3.58962,-14.19988 11.9603,-26.17971 23.65003,-33.84713 2.61461,-1.71495 8.31738,-4.50926 11.38095,-5.57658 9.19491,-3.2034 19.94956,-3.88932 29.60629,-1.88823 19.18536,3.9756 34.9999,18.77489 40.93769,38.30962 4.54109,14.93968 2.22131,30.8301 -6.43978,44.11256 -3.16536,4.85432 -8.84461,11.07199 -13.52185,14.80375 -6.02846,4.80983 -15.76743,9.18659 -22.56481,10.14077 -4.94968,0.6948 -25.07478,1.20069 -65.23464,1.63977 l -16.69306,0.18251 0,-54.21097 z m 80.62819,47.28053 c 5.11009,-0.74937 8.26237,-1.7183 13.09423,-4.02484 10.86879,-5.18835 19.38202,-14.43079 23.97065,-26.02397 3.58451,-9.05621 4.481,-20.32955 2.4186,-30.414 -1.90106,-9.29569 -5.75604,-16.0153 -13.77041,-24.00327 -4.36095,-4.34658 -7.51038,-6.68249 -12.08253,-8.96154 -7.22296,-3.6004 -15.00512,-5.13045 -24.13452,-4.74512 -10.70214,0.45172 -17.2209,2.46609 -25.47533,7.87214 -10.65063,6.97541 -17.32589,16.70715 -20.37455,29.70372 -1.7245,7.35163 -1.76513,16.17691 -0.10798,23.46412 1.87096,8.22767 5.84815,15.83755 11.28099,21.58483 9.35626,9.8978 18.92886,14.78987 31.19084,15.94005 3.53316,0.33142 10.36113,0.14011 13.99008,-0.39212 l 0,0 z"
       id="path3052"
       inkscape:connector-curvature="0"
       inkscape:export-filename="/home/franco/Desktop/logo.png"
       inkscape:export-xdpi="90"
       inkscape:export-ydpi="90" />
    <path
       style="opacity:0.46700003000000001;fill:#c33a1a;fill-opacity:1;fill-rule:nonzero;stroke:none"
       d="m 385.78889,313.31036 -1.60897,-0.15605 1.3112,-0.2011 c 0.72115,-0.11068 2.65192,-0.20143 4.29057,-0.20179 3.93559,-8e-4 9.67568,-0.44039 12.45755,-0.95392 3.9425,-0.72775 11.44503,-3.69506 15.49061,-6.12666 3.65692,-2.19799 6.26285,-4.22772 9.81719,-7.64647 8.06911,-7.76127 13.21049,-15.94171 15.92472,-25.33771 4.45685,-15.42859 1.78902,-31.52 -7.54097,-45.4845 -9.02516,-13.50823 -22.64827,-21.83754 -39.00616,-23.84872 -2.87708,-0.35375 -9.06613,-0.35644 -12.20839,-0.006 -14.40814,1.60997 -27.45623,8.72494 -36.38835,19.84212 -5.52359,6.87482 -9.8452,16.08845 -11.59554,24.7216 -1.22872,6.06041 -1.23592,13.92518 -0.0181,19.7891 1.33968,6.4507 4.60022,14.69955 7.69923,19.4783 2.99422,4.61715 9.26615,11.51878 13.60819,14.9745 1.09929,0.8749 3.20914,2.29004 4.68853,3.14475 1.4794,0.8547 2.46715,1.55402 2.19503,1.55402 -0.70665,0 -4.6722,-2.43884 -7.80964,-4.80299 -10.2051,-7.68979 -18.04968,-20.26294 -20.64017,-33.08167 -3.669,-18.15564 2.10655,-37.2848 15.23069,-50.44542 4.70714,-4.72023 8.85894,-7.64875 15.26775,-10.7693 16.84207,-8.20063 36.0147,-7.15459 52.71336,2.87603 14.11486,8.47854 24.12154,24.27632 26.04397,41.11617 0.35353,3.09684 0.35353,9.23859 0,12.33542 -1.12109,9.82033 -5.13462,19.71987 -11.25415,27.75882 -11.25236,14.78171 -30.42499,23.24003 -48.66817,21.47076 z"
       id="path3062"
       inkscape:connector-curvature="0"
       inkscape:export-filename="/home/franco/Desktop/logo.png"
       inkscape:export-xdpi="90"
       inkscape:export-ydpi="90" />
    <path
       style="opacity:0.46700003;fill:#4682b4;fill-opacity:1;fill-rule:nonzero;stroke:none"
       d=""
       id="path3064"
       inkscape:connector-curvature="0" />
    <path
       style="opacity:0.46700003000000001;fill:#c33a1a;fill-opacity:1;fill-rule:nonzero;stroke:none"
       d="m 318.47779,259.38795 c 0,-29.86648 0.0314,-42.08459 0.0697,-27.15133 0.0383,14.93322 0.0383,39.36943 0,54.30268 -0.0383,14.93324 -0.0697,2.71513 -0.0697,-27.15135 z"
       id="path3066"
       inkscape:connector-curvature="0"
       inkscape:export-filename="/home/franco/Desktop/logo.png"
       inkscape:export-xdpi="90"
       inkscape:export-ydpi="90" />
    <path
       style="opacity:0.46700003000000001;fill:#c33a1a;fill-opacity:1;fill-rule:nonzero;stroke:none"
       d="m 317.5418,258.98572 0,-54.57087 3.21794,0 c 2.68161,0 3.21793,0.067 3.21793,0.40226 0,0.33239 -0.49653,0.40223 -2.85973,0.40223 l -2.85972,0 0.16848,54.16861 c 0.16707,53.71684 0.16408,54.16861 -0.3582,54.16861 -0.52176,0 -0.5267,-0.51142 -0.5267,-54.57084 z"
       id="path3068"
       inkscape:connector-curvature="0"
       inkscape:export-filename="/home/franco/Desktop/logo.png"
       inkscape:export-xdpi="90"
       inkscape:export-ydpi="90" />
    <path
       style="opacity:0.46700003000000001;fill:#c33a1a;fill-opacity:1;fill-rule:nonzero;stroke:none"
       d="m 317.72029,277.00801 c -0.098,-19.79402 -0.17832,-44.22502 -0.17839,-54.29113 l -10e-5,-18.30203 1.03219,0 c 0.5677,0 1.9856,0.0866 3.1509,0.19262 l 2.11871,0.19259 -1.34081,0.18615 c -0.73745,0.10244 -2.02174,0.19673 -2.85403,0.20964 l -1.5132,0.0234 0.14626,53.72529 c 0.0959,35.2262 0.0551,53.78161 -0.11848,53.88888 -0.17339,0.10722 -0.32627,-12.25574 -0.44303,-35.82549 z"
       id="path3070"
       inkscape:connector-curvature="0"
       inkscape:export-filename="/home/franco/Desktop/logo.png"
       inkscape:export-xdpi="90"
       inkscape:export-ydpi="90" />
    <path
       style="opacity:0.46700003000000001;fill:#c33a1a;fill-opacity:1;fill-rule:nonzero;stroke:none"
       d="m 317.64514,266.09199 c 0,-1.84361 0.0428,-2.59782 0.0952,-1.67601 0.0524,0.92181 0.0524,2.43021 0,3.35202 -0.0524,0.9218 -0.0952,0.1676 -0.0952,-1.67601 z"
       id="path3072"
       inkscape:connector-curvature="0"
       inkscape:export-filename="/home/franco/Desktop/logo.png"
       inkscape:export-xdpi="90"
       inkscape:export-ydpi="90" />
    <path
       style="opacity:0.46700003000000001;fill:#c33a1a;fill-opacity:1;fill-rule:nonzero;stroke:none"
       d="m 318.61445,259.41891 0,-54.19957 2.54752,0 2.54754,0 0,50.95068 0,50.95067 21.20057,0 c 12.78439,0 21.14028,-0.0976 21.04863,-0.24587 -0.0837,-0.13531 -1.14658,-0.8138 -2.36223,-1.50794 -3.547,-2.02532 -5.9827,-3.98145 -9.99549,-8.02744 -5.75792,-5.80558 -8.4644,-9.35141 -11.05799,-14.48737 -4.37548,-8.66451 -6.2863,-16.32584 -6.25353,-25.07309 0.0238,-6.35655 0.56132,-9.68571 2.5771,-15.96189 2.82936,-8.80923 7.50849,-16.42034 14.1263,-22.97788 7.73621,-7.66577 17.51438,-12.69722 28.26526,-14.54419 5.44467,-0.93538 13.19002,-0.99242 18.47515,-0.13606 25.64605,4.15546 45.43272,27.6383 45.45117,53.9415 0.006,8.89069 -2.41825,17.83822 -7.02411,25.92236 -3.89594,6.83811 -11.39516,15.04848 -17.64455,19.31779 -6.09662,4.16495 -14.28528,7.54525 -20.11211,8.30233 -4.83133,0.62774 -23.65796,1.17362 -51.75514,1.50064 -7.00572,0.0816 -16.62938,0.22175 -21.3859,0.3116 l -8.64819,0.16334 0,-54.1996 z m 77.63272,47.68622 c 6.28829,-0.54361 10.36771,-1.64387 15.89849,-4.28795 11.80585,-5.64397 20.49145,-15.40123 24.93357,-28.00995 1.75192,-4.97271 2.46388,-9.17844 2.65867,-15.70551 0.3402,-11.39907 -1.93105,-20.26348 -7.1881,-28.05407 -3.65768,-5.42045 -10.51134,-12.2959 -15.38601,-15.43494 -4.25431,-2.73953 -10.33492,-5.23003 -15.16201,-6.21005 -8.93138,-1.81328 -21.47226,-1.02468 -29.04733,1.82655 -6.41918,2.41617 -13.86619,7.44921 -18.68379,12.62735 -12.07105,12.97444 -16.1004,33.59567 -10.00195,51.18751 1.22346,3.52924 3.94642,8.79222 6.12083,11.83042 1.90881,2.6671 6.67602,7.59711 9.78993,10.12427 10.02325,8.13453 21.54186,11.36211 36.0677,10.10637 z"
       id="path3074"
       inkscape:connector-curvature="0"
       inkscape:export-filename="/home/franco/Desktop/logo.png"
       inkscape:export-xdpi="90"
       inkscape:export-ydpi="90" />
    <path
       style="opacity:0.46700003000000001;fill:#c33a1a;fill-opacity:1;fill-rule:nonzero;stroke:none"
       d="m 318.61445,259.40591 0,-54.18657 2.54752,0 2.54754,0 0,50.95068 0,50.95067 21.20057,0 c 13.49272,0 21.14268,-0.0937 21.04132,-0.25773 -0.0875,-0.14175 -1.27129,-0.94404 -2.63041,-1.78288 -3.36219,-2.07513 -5.1873,-3.51257 -8.47042,-6.67119 -6.04967,-5.82031 -9.84124,-10.83543 -12.77504,-16.89761 -3.40102,-7.02762 -4.90683,-12.43698 -5.49736,-19.74814 -1.53192,-18.96641 8.40479,-38.81732 24.80803,-49.55978 2.92076,-1.91278 8.5121,-4.60573 11.98384,-5.77173 10.30287,-3.46023 22.79839,-3.64947 33.20135,-0.50281 14.78818,4.47306 27.77425,16.30741 34.03458,31.01613 3.71532,8.72915 5.13407,18.32859 4.05017,27.40398 -0.64036,5.36163 -2.63247,11.8056 -5.30563,17.16235 -4.22801,8.47247 -12.63652,17.78704 -20.57777,22.79516 -4.97894,3.13994 -11.93934,6.0013 -16.89417,6.94505 -4.21729,0.80326 -19.0487,1.30168 -52.29147,1.75731 -10.76669,0.14761 -22.14009,0.33927 -25.27422,0.426 l -5.69843,0.1577 0,-54.18659 z m 79.2417,47.58735 c 5.84438,-0.65453 9.58566,-1.78706 15.25808,-4.61879 9.58417,-4.78452 17.28444,-12.68559 21.90101,-22.47217 3.43783,-7.28775 4.80817,-13.74828 4.80817,-22.66819 0,-14.9018 -4.13535,-24.60644 -15.04515,-35.30723 -5.80862,-5.69735 -9.96291,-8.36791 -17.00013,-10.92846 -5.62081,-2.04519 -10.41197,-2.69028 -18.4879,-2.48921 -6.08076,0.15138 -9.80744,0.66185 -14.18538,1.94306 -7.41012,2.16855 -16.75042,8.37553 -22.0102,14.6266 -5.75598,6.84076 -9.23317,14.50881 -11.05874,24.38711 -0.66615,3.6046 -0.66691,13.55067 -0.001,17.16232 1.72728,9.37251 5.4992,17.42243 11.08651,23.6605 8.68715,9.69895 18.30892,15.05647 29.98616,16.69665 3.34945,0.47045 10.58368,0.47429 14.74888,0.007 l 0,2e-5 z"
       id="path3076"
       inkscape:connector-curvature="0"
       inkscape:export-filename="/home/franco/Desktop/logo.png"
       inkscape:export-xdpi="90"
       inkscape:export-ydpi="90" />
    <path
       style="opacity:0.46700003000000001;fill:#c33a1a;fill-opacity:1;fill-rule:nonzero;stroke:none"
       d="m 318.61445,259.3989 0,-54.17956 2.54752,0 2.54754,0 0,50.95068 0,50.95067 21.20057,0 c 11.66033,0 21.14092,-0.0966 21.068,-0.21454 -0.0729,-0.11804 -1.73577,-1.29457 -3.69523,-2.61458 -5.47754,-3.69005 -12.57952,-10.81814 -16.39461,-16.45489 -5.94451,-8.78295 -9.3118,-19.6079 -9.30477,-29.91247 0.012,-17.74479 9.44355,-35.18059 24.57427,-45.43014 2.25461,-1.52728 8.5571,-4.63193 11.49124,-5.66068 9.03141,-3.16652 19.68923,-3.8379 29.49777,-1.85817 18.94387,3.82359 35.53519,19.65275 40.7304,38.85936 3.50876,12.97185 2.38236,25.10177 -3.45077,37.16059 -4.30262,8.89482 -13.49693,18.98417 -21.62706,23.73242 -6.16409,3.60004 -12.86715,6.07151 -18.07313,6.66372 -5.57685,0.63439 -22.05962,1.1037 -56.97722,1.62221 -9.95548,0.14792 -19.45847,0.33545 -21.11771,0.41687 l -3.01681,0.14806 0,-54.17954 z m 78.78299,47.70526 c 7.79546,-0.85226 14.11236,-3.1968 20.97306,-7.78422 7.26256,-4.85612 12.69019,-11.17051 16.62459,-19.34068 3.55574,-7.38383 4.82173,-13.35262 4.82614,-22.75365 0.007,-15.87252 -4.5953,-25.85409 -17.27864,-37.47097 -5.74059,-5.25793 -12.77713,-8.80189 -20.94577,-10.54942 -2.70324,-0.57831 -3.5425,-0.62686 -10.57878,-0.61199 -6.66432,0.0135 -8.05102,0.0913 -10.8333,0.60275 -7.65548,1.40744 -14.51203,4.72507 -21.55332,10.42881 -7.16148,5.80113 -12.42695,13.97432 -15.17431,23.55393 -1.30465,4.54917 -1.78468,7.65781 -1.96468,12.72312 -0.33809,9.51388 1.17264,16.78782 5.15172,24.80494 2.31146,4.65714 4.67321,7.89748 8.70741,11.94657 6.27197,6.2951 12.01577,9.98551 19.30862,12.40584 2.73356,0.90721 7.33785,1.94312 9.51974,2.14181 2.49318,0.22706 10.81243,0.16611 13.21752,-0.0969 z"
       id="path3078"
       inkscape:connector-curvature="0"
       inkscape:export-filename="/home/franco/Desktop/logo.png"
       inkscape:export-xdpi="90"
       inkscape:export-ydpi="90" />
    <path
       style="opacity:0.46700003000000001;fill:#c33a1a;fill-opacity:1;fill-rule:nonzero;stroke:none"
       d="m 318.61445,259.3854 0,-54.16606 2.54752,0 2.54754,0 0,50.95068 0,50.95067 21.18477,0 c 11.6516,0 21.18474,-0.0496 21.18474,-0.11007 0,-0.0606 -1.53858,-1.20279 -3.41906,-2.53832 -9.24035,-6.56252 -16.77869,-15.24818 -20.85324,-24.02702 -6.82767,-14.71065 -6.78895,-30.71356 0.10963,-45.31406 4.15485,-8.79349 11.22174,-17.13258 18.93814,-22.34741 2.05013,-1.38551 7.93019,-4.37758 10.71091,-5.45025 9.03654,-3.48592 20.43239,-4.31665 30.61567,-2.23181 19.91924,4.07807 36.72453,20.91252 41.23097,41.30246 1.24955,5.65378 1.66413,13.22455 0.98394,17.96816 -1.12134,7.82005 -4.03261,15.69682 -8.06911,21.83175 -4.58846,6.97387 -11.2055,13.74209 -17.19963,17.59264 -5.20654,3.34463 -12.90415,6.46613 -18.05317,7.32085 -4.21372,0.69947 -15.35748,1.05869 -54.57085,1.75907 -12.31531,0.21997 -23.62838,0.46179 -25.14014,0.53736 l -2.74864,0.13742 0,-54.16606 z m 78.87809,47.72009 c 9.62712,-0.98229 18.73442,-5.14116 26.42475,-12.06691 6.72136,-6.0531 12.24219,-15.28107 14.54545,-24.31244 1.68523,-6.60793 1.8544,-17.44188 0.38855,-24.88033 -1.86877,-9.48301 -6.68182,-17.23805 -16.02565,-25.82144 -5.57844,-5.12444 -11.33621,-8.26381 -18.82226,-10.26267 -3.62768,-0.96862 -6.92028,-1.30916 -12.71719,-1.3152 -9.96604,-0.0105 -15.79628,1.17269 -22.59753,4.58566 -13.76309,6.90653 -22.63889,18.23112 -26.03336,33.21588 -0.8936,3.94479 -1.24768,7.35495 -1.24493,11.98966 0.003,6.19984 0.64753,10.35786 2.44113,15.76505 2.81869,8.4976 7.11649,14.93861 14.19802,21.2783 7.017,6.28192 14.5688,9.97226 23.71695,11.58978 3.15691,0.55818 11.35627,0.68054 15.72607,0.23466 z"
       id="path3080"
       inkscape:connector-curvature="0"
       inkscape:export-filename="/home/franco/Desktop/logo.png"
       inkscape:export-xdpi="90"
       inkscape:export-ydpi="90" />
    <path
       style="opacity:0.46700003000000001;fill:#c33a1a;fill-opacity:1;fill-rule:nonzero;stroke:none"
       d="m 318.61445,259.39914 0,-54.1798 2.54752,0 2.54754,0 0,50.95068 0,50.95067 21.18477,0 c 11.6516,0 21.18474,-0.046 21.18474,-0.10213 0,-0.0562 -1.77496,-1.41036 -3.94437,-3.00941 -6.42193,-4.73355 -12.59083,-11.06446 -16.56554,-17.00065 -3.07957,-4.59932 -5.86331,-11.04108 -7.35856,-17.02826 -1.80958,-7.24586 -1.82556,-16.615 -0.0412,-24.10316 1.32879,-5.57592 4.53451,-12.92582 7.67469,-17.59594 4.52233,-6.72572 10.82048,-12.94271 16.67093,-16.45616 4.41678,-2.65246 10.37752,-5.11841 15.22898,-6.30022 8.56329,-2.086 18.8402,-1.94558 27.48247,0.37553 17.64501,4.73904 32.80461,20.17231 37.53864,38.21629 1.39098,5.3017 1.73516,8.13471 1.74125,14.33272 0.006,6.57314 -0.42655,9.32099 -2.42664,15.39906 -2.76034,8.38843 -6.86381,14.99537 -13.64747,21.97361 -3.53151,3.6328 -6.17177,5.87456 -9.25731,7.86004 -4.30175,2.76809 -11.09859,5.72053 -15.86115,6.88982 -2.97206,0.72971 -6.70728,1.03296 -16.85453,1.36841 -7.31551,0.24183 -16.66993,0.44293 -56.58207,1.2163 -4.05595,0.0785 -8.24933,0.20577 -9.31862,0.28261 l -1.94416,0.13966 0,-54.17979 z m 78.83946,47.71645 c 9.41523,-0.97555 18.22201,-4.90253 25.87553,-11.53796 7.6481,-6.63076 13.78362,-17.33992 15.73396,-27.46256 0.76854,-3.98889 0.97211,-14.11964 0.37471,-18.64909 -1.41114,-10.69943 -5.46444,-18.49922 -14.03856,-27.01447 -6.19369,-6.15117 -11.55502,-9.58179 -18.55998,-11.8762 -5.57971,-1.82758 -6.82055,-1.98438 -15.68745,-1.98242 -9.1649,0.001 -11.19074,0.24668 -16.53928,1.99759 -8.69962,2.84793 -17.58141,9.1061 -23.08542,16.26616 -4.60823,5.99474 -7.98239,13.8235 -9.46243,21.95488 -0.58927,3.23747 -0.81714,11.80932 -0.40959,15.40774 1.03894,9.17325 4.93705,18.41717 10.62788,25.20276 6.23887,7.4391 14.46436,13.16615 22.64507,15.76679 2.51907,0.80081 7.0318,1.82951 8.84932,2.01725 2.09947,0.21688 11.29731,0.15603 13.67624,-0.0904 z"
       id="path3082"
       inkscape:connector-curvature="0"
       inkscape:export-filename="/home/franco/Desktop/logo.png"
       inkscape:export-xdpi="90"
       inkscape:export-ydpi="90" />
    <path
       style="opacity:0.46700003000000001;fill:#c33a1a;fill-opacity:1;fill-rule:nonzero;stroke:none"
       d="m 318.61445,259.4042 0,-54.18486 2.54752,0 2.54754,0 0,50.95068 0,50.95067 21.18477,0 c 11.6516,0 21.18474,-0.0506 21.18474,-0.11263 0,-0.0618 -0.87487,-0.74666 -1.94416,-1.52167 -12.92994,-9.37141 -20.58636,-19.02838 -24.56815,-30.98747 -6.29049,-18.89323 -1.56814,-39.02079 12.72625,-54.24176 4.38362,-4.66778 8.71822,-7.8334 14.72463,-10.75365 8.49478,-4.13004 15.35605,-5.55399 25.45453,-5.28266 9.75,0.26196 17.25369,2.3187 24.79109,6.79515 13.51299,8.02536 23.18462,21.38219 26.18459,36.16178 2.8312,13.94827 0.24974,27.5815 -7.45441,39.36808 -3.91801,5.99416 -10.61472,12.91658 -16.08131,16.62332 -3.78925,2.56939 -10.35924,5.58096 -15.29681,7.01182 -5.22994,1.51558 -8.98968,1.67117 -68.43626,2.83199 -7.6694,0.14972 -14.75892,0.34061 -15.75448,0.42414 l -1.81008,0.15185 0,-54.18485 z m 78.87809,47.7009 c 10.25179,-1.04746 20.07585,-5.78092 27.86344,-13.42522 5.18578,-5.09035 9.69141,-12.38245 12.05959,-19.51771 1.81904,-5.48078 2.40784,-9.64502 2.40784,-17.02929 0,-10.65418 -1.98494,-18.14197 -6.7317,-25.39386 -3.85942,-5.89625 -10.58399,-12.73502 -15.98263,-16.25402 -4.37613,-2.85252 -10.59143,-5.37202 -15.88787,-6.44046 -3.38128,-0.68212 -16.95539,-0.6587 -20.79555,0.0359 -10.75769,1.94575 -22.07922,8.91605 -28.91844,17.80412 -5.23075,6.79776 -8.91009,16.15726 -9.8258,24.9949 -1.68905,16.3014 3.30863,30.83865 14.25363,41.46091 7.39284,7.17485 14.93927,11.29148 24.22245,13.21356 1.47488,0.30537 3.10396,0.59885 3.62017,0.65216 2.19187,0.22641 11.15671,0.16041 13.71487,-0.10087 z"
       id="path3084"
       inkscape:connector-curvature="0"
       inkscape:export-filename="/home/franco/Desktop/logo.png"
       inkscape:export-xdpi="90"
       inkscape:export-ydpi="90" />
    <path
       style="opacity:0.46700003000000001;fill:#c33a1a;fill-opacity:1;fill-rule:nonzero;stroke:none"
       d="m 318.61445,259.39422 0,-54.17488 2.54752,0 2.54754,0 0,50.95068 0,50.95067 21.23839,0 c 12.19623,0 21.12992,-0.10014 20.98363,-0.2353 -0.14011,-0.12945 -1.58216,-1.23424 -3.20452,-2.45517 -6.15793,-4.63416 -10.87669,-9.15161 -14.65446,-14.02923 -5.37994,-6.94624 -8.82602,-14.6592 -10.4417,-23.37043 -0.70312,-3.79094 -0.95313,-10.56462 -0.53447,-14.48072 1.27681,-11.94313 6.593,-23.19376 15.31211,-32.40489 4.32144,-4.56532 8.53271,-7.62771 14.6091,-10.62361 5.90756,-2.91267 11.086,-4.42498 17.59021,-5.13705 3.52184,-0.38557 11.75112,-0.15628 15.49845,0.43184 20.82013,3.26751 39.0306,21.06773 43.34114,42.36475 2.64742,13.07999 0.53126,25.90288 -6.14753,37.25109 -4.05077,6.88285 -11.43578,14.77555 -17.64416,18.85714 -4.63245,3.04551 -11.73067,6.15635 -16.70448,7.32083 -4.35488,1.01959 -11.21333,1.2932 -53.49821,2.13423 -14.67512,0.29188 -27.61728,0.59689 -28.76032,0.67782 l -2.07824,0.14716 0,-54.17488 z m 78.60993,47.71227 c 3.72631,-0.3789 6.24418,-0.91051 9.61519,-2.03011 12.03188,-3.99613 22.00438,-12.73131 27.8215,-24.3696 3.74307,-7.48877 5.16234,-13.90287 5.16234,-23.33004 0,-15.07597 -3.87244,-24.34567 -14.67047,-35.11754 -4.27662,-4.26624 -7.95992,-7.00159 -12.27976,-9.11934 -7.35487,-3.60565 -12.28414,-4.67677 -21.58699,-4.69078 -9.76739,-0.015 -15.86775,1.20431 -22.37198,4.47055 -13.85908,6.95966 -22.47418,17.76219 -26.15193,32.79208 -1.04031,4.25139 -1.45959,8.97718 -1.27958,14.42237 0.21613,6.53804 1.10516,10.89996 3.42777,16.81788 2.40553,6.12921 5.72114,11.02953 10.97754,16.22433 6.80896,6.72918 13.56125,10.66388 22.06093,12.85544 1.68801,0.43524 3.96153,0.90306 5.05228,1.03961 2.79777,0.35029 10.92629,0.37036 14.22316,0.0352 l 0,0 z"
       id="path3086"
       inkscape:connector-curvature="0"
       inkscape:export-filename="/home/franco/Desktop/logo.png"
       inkscape:export-xdpi="90"
       inkscape:export-ydpi="90" />
    <path
       style="opacity:0.46700003000000001;fill:#c33a1a;fill-opacity:1;fill-rule:nonzero;stroke:none"
       d="m 318.61445,259.3893 0,-54.16996 2.54752,0 2.54754,0 0,50.95068 0,50.95067 21.07302,0 c 11.59017,0 21.0328,-0.10329 20.98363,-0.22949 -0.0491,-0.12614 -1.59178,-1.36311 -3.42806,-2.74866 -11.7426,-8.86026 -18.99177,-18.29214 -22.76204,-29.6156 -6.3169,-18.97185 -1.54538,-39.19284 12.83243,-54.38199 7.49279,-7.91563 17.50517,-13.23294 28.95573,-15.37766 3.63557,-0.68094 14.45488,-0.67395 18.59826,0.012 10.29967,1.7052 19.68866,6.4996 27.60126,14.0943 12.87042,12.35333 18.80443,29.07469 16.51879,46.54796 -0.94738,7.24254 -4.64603,16.39122 -9.22408,22.81595 -3.96371,5.56258 -10.40446,11.94398 -15.21078,15.07061 -4.1595,2.70586 -10.24268,5.48493 -15.06512,6.88241 -5.1971,1.50606 -6.59535,1.56446 -67.59904,2.82374 -7.22695,0.14911 -14.31647,0.33281 -15.75448,0.4081 l -2.61458,0.1368 0,-54.16995 z m 81.78923,47.31845 c 14.60607,-2.58997 27.39977,-12.30767 34.26528,-26.02684 3.67868,-7.35106 5.15445,-14.00662 5.15445,-23.24605 0,-15.43551 -4.02671,-24.7847 -15.44849,-35.86808 -3.4722,-3.36933 -5.39576,-4.92528 -8.28379,-6.70076 -4.1049,-2.52353 -10.07078,-4.82811 -14.88295,-5.74915 -4.93337,-0.94424 -16.96332,-0.78948 -22.24047,0.28614 -8.09435,1.64984 -17.15558,6.72286 -23.62263,13.22534 -6.85774,6.89535 -11.38307,15.89397 -13.29411,26.43538 -0.69305,3.82286 -0.69318,14.14289 -2.2e-4,17.96683 1.39584,7.70255 4.85236,15.57009 9.33308,21.24351 3.63392,4.60121 9.45152,9.75454 14.35659,12.71734 5.08341,3.07052 12.02192,5.43196 18.30541,6.23002 2.28597,0.29033 13.87619,-0.0736 16.35785,-0.51368 l 0,0 z"
       id="path3088"
       inkscape:connector-curvature="0"
       inkscape:export-filename="/home/franco/Desktop/logo.png"
       inkscape:export-xdpi="90"
       inkscape:export-ydpi="90" />
    <path
       style="opacity:0.46700003000000001;fill:#c33a1a;fill-opacity:1;fill-rule:nonzero;stroke:none"
       d="m 318.61445,259.3955 0,-54.17616 2.54752,0 2.54754,0 0,50.95068 0,50.95067 21.05068,0 c 11.57787,0 21.04715,-0.0906 21.04286,-0.20112 -0.004,-0.11067 -0.75786,-0.74416 -1.67456,-1.40785 -10.31022,-7.46467 -17.59987,-15.62208 -21.92663,-24.53678 -9.87409,-20.34408 -5.94375,-43.76824 10.20663,-60.82999 8.00411,-8.45581 19.08843,-14.05822 30.91464,-15.62539 3.96536,-0.52547 12.83302,-0.37215 16.81239,0.29066 11.05674,1.84169 21.09785,7.31186 29.36368,15.99668 7.90712,8.30791 12.69416,17.9825 14.51237,29.32949 0.5722,3.57083 0.64937,12.05627 0.13906,15.28519 -1.23157,7.79217 -4.76647,16.47115 -9.29127,22.81204 -3.24952,4.55385 -9.07749,10.60852 -13.09536,13.60483 -4.9786,3.71276 -12.7595,7.34315 -18.81275,8.77761 -4.27059,1.01203 -11.21366,1.2956 -52.02333,2.12474 -14.3064,0.29067 -27.42955,0.59652 -29.16254,0.67968 l -3.1509,0.15117 0,-54.17615 z m 80.96982,47.44225 c 4.81289,-0.71295 10.56658,-2.71355 15.12941,-5.26054 12.89661,-7.19894 22.0294,-20.1292 24.48079,-34.65998 0.62894,-3.72807 0.76969,-12.38805 0.27056,-16.64678 -1.27883,-10.91142 -4.86511,-18.15677 -13.31784,-26.90595 -6.5961,-6.82743 -11.70201,-10.17342 -19.49368,-12.77455 -4.21175,-1.40603 -7.05784,-1.86905 -12.6857,-2.06379 -7.96245,-0.27555 -14.55166,0.45461 -19.73213,2.18651 -5.26637,1.76063 -12.11724,5.82022 -16.90527,10.01749 -7.13338,6.25324 -12.61579,15.9002 -14.80677,26.05421 -1.19763,5.5504 -1.40719,14.24694 -0.47865,19.86471 2.35108,14.22462 10.91699,26.56951 23.88624,34.42404 4.80842,2.91212 11.50577,5.22838 17.44421,6.03305 2.33327,0.31617 13.51237,0.1311 16.20883,-0.26842 z"
       id="path3090"
       inkscape:connector-curvature="0"
       inkscape:export-filename="/home/franco/Desktop/logo.png"
       inkscape:export-xdpi="90"
       inkscape:export-ydpi="90" />
    <path
       style="opacity:0.46700003000000001;fill:#c33a1a;fill-opacity:1;fill-rule:nonzero;stroke:none"
       d="m 318.61445,259.40852 0,-54.18918 2.54752,0 2.54754,0 0,50.95376 0,50.95375 20.64312,-0.009 c 11.35371,-0.004 20.82829,-0.0805 21.05461,-0.16736 0.28939,-0.11112 -0.28594,-0.67763 -1.93885,-1.90931 -7.87611,-5.86901 -13.41901,-11.45683 -17.67255,-17.81581 -9.11493,-13.62662 -11.41369,-30.46446 -6.26288,-45.87368 2.59997,-7.77803 6.95632,-14.95305 12.87553,-21.20628 8.0264,-8.47936 19.0555,-14.05386 30.91464,-15.6254 3.62691,-0.48063 12.51581,-0.38404 16.27607,0.17685 21.83649,3.25715 40.53794,22.07522 44.23222,44.50805 2.43378,14.77869 -1.18037,29.0009 -10.40072,40.92838 -3.6876,4.7703 -9.3757,10.25044 -13.58531,13.0887 -2.91054,1.96237 -9.54439,5.10406 -13.54216,6.41335 -6.58093,2.15533 -6.52531,2.15268 -74.01254,3.51644 -3.90846,0.079 -8.58453,0.21172 -10.39126,0.29499 l -3.28498,0.1514 0,-54.1892 z m 77.50789,47.71861 c 6.3617,-0.4657 10.93346,-1.75083 16.87941,-4.74478 7.81343,-3.93429 13.64887,-9.09979 18.55662,-16.42619 6.05254,-9.03538 8.58198,-18.53997 8.17669,-30.72471 -0.44994,-13.52686 -3.97529,-21.87529 -13.35948,-31.63684 -6.63104,-6.89769 -11.98483,-10.42545 -19.67009,-12.96118 -5.35465,-1.76676 -7.31706,-2.02834 -15.28521,-2.03754 -7.54173,-0.009 -10.13494,0.2367 -14.48072,1.37043 -10.70281,2.79221 -21.28932,10.45704 -27.4121,19.84692 -3.62537,5.55981 -6.48836,13.19603 -7.61963,20.32315 -0.52995,3.33859 -0.4387,13.32095 0.15187,16.6152 1.84327,10.28178 6.22249,18.77246 13.40615,25.99258 7.06237,7.09819 14.64892,11.433 23.71844,13.55227 4.4834,1.04764 10.16702,1.32638 16.93805,0.83069 l 0,0 z"
       id="path3092"
       inkscape:connector-curvature="0"
       inkscape:export-filename="/home/franco/Desktop/logo.png"
       inkscape:export-xdpi="90"
       inkscape:export-ydpi="90" />
    <path
       style="opacity:0.46700003000000001;fill:#c33a1a;fill-opacity:1;fill-rule:nonzero;stroke:none"
       d="m 318.61445,259.41584 0,-54.1965 2.54752,0 2.54754,0 0,50.95537 0,50.95535 20.45516,-0.015 c 11.25033,-0.007 20.71625,-0.0826 21.03537,-0.16605 0.49715,-0.13005 0.24642,-0.40316 -1.75089,-1.90756 -14.05387,-10.5855 -21.63776,-20.99688 -25.02315,-34.35242 -4.51597,-17.8158 0.63821,-36.44748 13.98249,-50.54476 7.14211,-7.54515 16.79531,-12.85297 27.40875,-15.0707 4.0758,-0.85165 11.6764,-1.1611 16.83219,-0.68531 11.79369,1.08839 22.15723,5.99326 31.20147,14.76707 11.89239,11.53677 17.80625,26.86569 16.58345,42.98482 -0.77671,10.23869 -4.80218,20.22406 -11.59266,28.75609 -3.5497,4.46009 -9.00542,9.63384 -12.9963,12.32461 -4.94094,3.33132 -14.67728,7.28052 -19.44171,7.88587 -5.09716,0.64759 -15.62743,0.99033 -54.57084,1.77614 -10.7667,0.21725 -21.29538,0.4701 -23.39709,0.56189 l -3.8213,0.16688 0,-54.19649 z m 77.31373,47.70128 c 6.12352,-0.44153 10.54521,-1.61218 16.14053,-4.27325 9.26815,-4.40781 16.18538,-10.89438 21.44244,-20.10752 4.05025,-7.09816 5.87754,-13.83493 6.22395,-22.94616 0.35217,-9.26274 -1.17876,-17.73031 -4.34086,-24.0094 -3.02689,-6.01062 -10.17283,-14.25561 -16.29329,-18.79923 -5.20019,-3.86045 -11.88342,-6.71677 -18.56318,-7.93364 -3.48092,-0.63415 -14.92542,-0.623 -19.11046,0.0186 -9.34917,1.43326 -18.67714,6.27279 -25.87964,13.42682 -9.99775,9.93045 -15.07063,24.43026 -13.91562,39.775 0.98098,13.03298 6.35814,23.85999 16.29413,32.80857 5.02041,4.52151 10.85045,7.98019 16.65223,9.87896 6.85182,2.24244 12.41431,2.80554 21.34977,2.16126 l 0,0 z"
       id="path3094"
       inkscape:connector-curvature="0"
       inkscape:export-filename="/home/franco/Desktop/logo.png"
       inkscape:export-xdpi="90"
       inkscape:export-ydpi="90" />
    <path
       style="opacity:0.46700003000000001;fill:#c33a1a;fill-opacity:1;fill-rule:nonzero;stroke:none"
       d="m 318.61445,259.41181 0,-54.19247 2.54752,0 2.54754,0 0,50.9539 0,50.95387 20.04508,-0.0419 c 11.02477,-0.023 20.45909,-0.11487 20.96513,-0.20434 l 0.92006,-0.16251 -1.59048,-1.19013 c -14.43358,-10.80056 -22.14224,-21.26045 -25.5942,-34.7288 -1.29864,-5.06687 -1.46984,-6.58602 -1.46723,-13.02054 0.001,-5.24444 0.0851,-6.45452 0.63489,-9.25156 2.08449,-10.60621 7.13375,-20.29869 14.78573,-28.38246 7.48584,-7.90829 17.5289,-13.2758 28.73824,-15.35915 3.05733,-0.56822 11.97291,-0.79128 15.80275,-0.39537 11.83356,1.22331 22.01092,6.10662 31.03156,14.88961 10.27244,10.00181 15.90628,22.45544 16.56722,36.6218 0.60449,12.95693 -3.83416,25.59974 -12.71199,36.20798 -2.69618,3.22169 -7.40284,7.74313 -10.44956,10.03831 -4.22588,3.18346 -14.41327,7.78664 -19.26879,8.70662 -2.40075,0.45488 -7.66307,0.81712 -15.79271,1.08714 -7.50687,0.24934 -13.99055,0.39949 -46.39194,1.07426 -6.93197,0.14431 -14.56451,0.33575 -16.96121,0.4253 l -4.35761,0.16281 0,-54.19246 z m 76.82825,47.71233 c 6.48406,-0.44345 10.9537,-1.57568 16.35785,-4.14375 10.28132,-4.88569 17.91957,-12.42898 22.99482,-22.70886 3.79088,-7.67843 5.30173,-15.39836 4.92676,-25.17416 -0.38426,-10.01759 -2.32215,-16.69537 -6.80929,-23.46412 -3.28865,-4.96086 -9.08654,-11.08924 -13.93084,-14.72495 -4.10748,-3.08272 -10.03359,-5.82758 -15.62676,-7.23803 -5.71654,-1.44154 -17.88628,-1.52005 -24.45783,-0.15776 -11.19029,2.31974 -22.4079,10.03275 -29.05182,19.97545 -6.22949,9.32245 -9.11782,20.84594 -8.20012,32.71568 0.5452,7.05168 2.08555,12.60214 5.18139,18.67046 2.42821,4.75967 5.16801,8.37036 9.64011,12.70444 5.31238,5.14842 9.9516,8.22992 15.91385,10.57041 7.1515,2.80735 13.51403,3.62817 23.06188,2.97519 z"
       id="path3096"
       inkscape:connector-curvature="0"
       inkscape:export-filename="/home/franco/Desktop/logo.png"
       inkscape:export-xdpi="90"
       inkscape:export-ydpi="90" />
    <path
       style="opacity:0.46700003000000001;fill:#c33a1a;fill-opacity:1;fill-rule:nonzero;stroke:none"
       d="m 318.61445,259.41484 0,-54.1955 2.54752,0 2.54754,0 0,50.95068 0,50.95067 19.24058,-0.0314 c 10.58233,-0.0172 20.01314,-0.10782 20.95738,-0.20112 l 1.71678,-0.16978 -2.65535,-2.01112 c -14.87216,-11.26395 -22.68072,-22.95062 -25.47666,-38.12969 -0.57042,-3.09685 -0.79192,-10.98796 -0.40148,-14.30379 1.40984,-11.97318 6.65735,-22.97982 15.31773,-32.12889 7.52218,-7.94668 17.45433,-13.24492 28.82165,-15.37474 2.96185,-0.55493 12.4234,-0.77696 15.96809,-0.37471 11.84055,1.34368 21.8429,6.18015 30.78281,14.88454 10.27938,10.00858 15.90422,22.44187 16.56771,36.6218 0.6071,12.97456 -3.81895,25.58097 -12.71248,36.20798 -2.68575,3.20924 -7.39484,7.736 -10.45148,10.0468 -4.04207,3.05576 -13.46076,7.37998 -18.70173,8.58617 -3.48188,0.80131 -12.39151,1.21832 -37.14035,1.73828 -29.32842,0.61616 -37.63623,0.80602 -42.16839,0.96369 l -4.75987,0.16558 0,-54.1955 z m 76.75175,47.70732 c 6.53129,-0.42312 11.02455,-1.5747 16.77203,-4.29851 6.12062,-2.90064 11.76376,-7.25111 16.01612,-12.34732 6.04944,-7.2499 9.88398,-15.84112 11.18273,-25.05475 0.43913,-3.11528 0.43913,-12.97439 0,-16.08969 -1.52106,-10.79069 -5.38255,-18.09694 -14.24989,-26.96191 -4.6313,-4.63007 -7.49553,-6.76191 -12.21401,-9.0909 -8.26774,-4.08086 -15.57101,-5.32876 -26.85528,-4.58876 -7.28789,0.47792 -11.7669,1.64604 -17.45384,4.55191 -12.10162,6.18361 -20.40039,15.71503 -24.45049,28.08214 -1.42347,4.34662 -2.11293,7.8976 -2.46186,12.67944 -1.07032,14.66758 3.44486,27.81845 12.94343,37.69896 7.60521,7.91103 14.5708,12.08394 23.99908,14.37723 5.13225,1.24833 9.44913,1.51657 16.77198,1.04216 l 0,0 z"
       id="path3098"
       inkscape:connector-curvature="0"
       inkscape:export-filename="/home/franco/Desktop/logo.png"
       inkscape:export-xdpi="90"
       inkscape:export-ydpi="90" />
    <path
       style="opacity:0.46700003000000001;fill:#c33a1a;fill-opacity:1;fill-rule:nonzero;stroke:none"
       d="m 318.61445,259.41894 0,-54.1996 2.54752,0 2.54754,0 0,50.95068 0,50.95067 18.97242,-0.035 c 10.43483,-0.0192 19.86565,-0.10978 20.95733,-0.20113 l 1.98491,-0.16607 -2.65345,-2.01123 c -5.35809,-4.06118 -10.40056,-8.7647 -13.91405,-12.97877 -6.3242,-7.58521 -10.8572,-18.17099 -11.92075,-27.83823 -1.50455,-13.67552 2.25712,-27.04879 10.8346,-38.51854 7.55368,-10.10072 17.94811,-16.99309 29.97931,-19.87873 4.21836,-1.01177 7.42597,-1.34625 12.90982,-1.34625 14.72995,0 26.51153,4.80301 37.12139,15.13335 10.27817,10.00739 15.90709,22.43059 16.56555,36.5606 0.60789,13.04484 -3.79956,25.62155 -12.71032,36.26918 -2.68575,3.20924 -7.39484,7.736 -10.45148,10.0468 -4.12772,3.12051 -14.17749,7.68737 -19.10737,8.68284 -4.03082,0.81392 -12.59501,1.14994 -48.53383,1.90422 -13.79019,0.28942 -27.3357,0.60467 -30.10111,0.70055 l -5.02803,0.17432 0,-54.19962 z m 76.46597,47.70029 c 6.81188,-0.43456 11.54885,-1.64576 17.27667,-4.41747 7.77637,-3.763 14.24154,-9.41457 19.02604,-16.63174 4.33078,-6.53275 6.92469,-13.23769 7.93631,-20.51435 0.51578,-3.71005 0.44948,-13.32971 -0.11743,-17.02825 -1.46724,-9.57358 -4.70946,-16.0235 -12.1798,-24.22984 -4.5487,-4.99689 -9.78386,-9.02096 -14.86982,-11.42989 -2.92633,-1.38602 -7.31821,-2.89831 -10.14256,-3.49243 -3.40602,-0.71647 -9.89129,-1.00934 -15.29712,-0.6908 -7.47869,0.44069 -11.63715,1.44212 -17.35487,4.17935 -16.33666,7.82087 -26.40921,22.80026 -27.70145,41.19619 -0.66213,9.42614 0.90194,18.02482 4.70066,25.8423 2.59947,5.34948 5.37733,9.1128 10.10266,13.68655 6.59789,6.38624 12.9574,10.07435 21.0161,12.18798 5.76936,1.51318 9.94111,1.8313 17.60454,1.3424 z"
       id="path3100"
       inkscape:connector-curvature="0"
       inkscape:export-filename="/home/franco/Desktop/logo.png"
       inkscape:export-xdpi="90"
       inkscape:export-ydpi="90" />
    <path
       style="opacity:0.46700003000000001;fill:#c33a1a;fill-opacity:1;fill-rule:nonzero;stroke:none"
       d="m 318.61445,259.41906 0,-54.19972 2.54752,0 2.54754,0 0,50.95068 0,50.95067 18.16795,-0.0329 c 9.99235,-0.0181 19.42659,-0.10857 20.96493,-0.20112 l 2.79699,-0.16826 -2.60712,-1.95767 c -5.18401,-3.89265 -10.44792,-8.80126 -13.97559,-13.03233 -6.3242,-7.58522 -10.8572,-18.171 -11.92075,-27.83823 -1.50387,-13.66943 2.23686,-26.9795 10.82549,-38.51855 7.46642,-10.03136 17.97512,-16.99738 29.98842,-19.87873 4.21836,-1.01175 7.42597,-1.34625 12.90982,-1.34625 14.71128,0 26.44035,4.75802 36.99125,15.00589 10.39462,10.09606 16.07855,22.59862 16.70703,36.74926 0.55562,12.50995 -3.5312,24.7157 -11.71725,34.99509 -3.61704,4.54198 -9.52291,10.12299 -13.26345,12.53386 -4.17905,2.6935 -11.87492,6.07882 -16.22376,7.1366 -4.45853,1.08447 -10.80738,1.36536 -49.20763,2.17713 -13.71646,0.28998 -27.3223,0.60531 -30.23521,0.70075 l -5.29618,0.17352 0,-54.19973 z m 76.29193,47.70693 c 6.89464,-0.42654 11.71472,-1.64856 17.45071,-4.42423 9.89196,-4.78674 17.67158,-12.67656 22.61322,-22.93354 3.67652,-7.63103 5.16331,-15.46612 4.73249,-24.93901 -0.59373,-13.05475 -3.60553,-20.36507 -12.47511,-30.2799 -6.96879,-7.79004 -14.83578,-12.62726 -24.27647,-14.92699 -5.49732,-1.33914 -17.42061,-1.39863 -23.70343,-0.11834 -12.28089,2.5027 -24.13374,11.0353 -30.76452,22.14672 -2.99208,5.01396 -5.47153,12.07657 -6.4233,18.29663 -0.59922,3.91597 -0.59563,12.30651 0.007,16.24631 0.88656,5.79661 3.19399,12.25968 6.14962,17.22497 5.74312,9.64811 16.04759,18.068 26.30958,21.49782 6.38035,2.13248 11.91917,2.73297 20.38027,2.2095 l 0,0 z"
       id="path3102"
       inkscape:connector-curvature="0"
       inkscape:export-filename="/home/franco/Desktop/logo.png"
       inkscape:export-xdpi="90"
       inkscape:export-ydpi="90" />
    <path
       style="opacity:0.46700003000000001;fill:#c33a1a;fill-opacity:1;fill-rule:nonzero;stroke:none"
       d="m 318.61445,259.42211 0,-54.20277 2.54752,0 2.54754,0 0,50.95068 0,50.95067 17.7657,-0.0363 c 9.77114,-0.0199 19.20525,-0.11053 20.96472,-0.20111 l 3.19902,-0.16476 -2.60691,-1.95767 c -5.18466,-3.89344 -10.44799,-8.80161 -13.97537,-13.03233 -6.3242,-7.58521 -10.8572,-18.17099 -11.92075,-27.83822 -1.50937,-13.71934 2.23103,-26.97068 10.90131,-38.62075 7.39157,-9.93189 17.93767,-16.90438 29.9126,-19.77653 4.21836,-1.01177 7.42597,-1.34625 12.90982,-1.34625 14.71128,0 26.44035,4.75801 36.99125,15.00588 10.39462,10.09607 16.07855,22.59861 16.70703,36.74927 0.55562,12.50995 -3.5312,24.71569 -11.71725,34.99507 -3.61722,4.5422 -9.5233,10.12337 -13.26345,12.53376 -4.08228,2.63088 -11.37215,5.88059 -15.71612,7.006 -4.66633,1.20893 -10.62536,1.48795 -49.31303,2.30899 -13.64271,0.28953 -27.30889,0.60579 -30.36929,0.70282 l -5.56434,0.17639 0,-54.20277 z m 80.04619,47.39207 c 10.62837,-1.23251 22.03532,-7.51348 29.24455,-16.10284 5.39771,-6.43104 9.53025,-14.8839 10.95106,-22.39977 0.7722,-4.08476 1.07409,-10.30998 0.73403,-15.13618 -0.83145,-11.80037 -3.91344,-19.09299 -11.8609,-28.06528 -3.03903,-3.4309 -7.12781,-7.09348 -10.28027,-9.20866 -4.35726,-2.92356 -10.46311,-5.48221 -15.57054,-6.5248 -4.86145,-0.99236 -16.77048,-0.9863 -22.09421,0.012 -11.65748,2.18442 -23.93661,10.5822 -30.37026,20.77042 -5.90032,9.34368 -8.4961,20.03914 -7.71871,31.80376 0.44926,6.79897 1.95138,12.38783 4.96593,18.4765 2.34625,4.73891 4.67149,7.91025 8.95934,12.21947 3.78663,3.8055 6.79203,6.2148 10.51967,8.4331 5.43267,3.23299 12.47964,5.48715 18.84407,6.02779 3.08427,0.26201 10.14557,0.10465 13.67624,-0.3048 z"
       id="path3104"
       inkscape:connector-curvature="0"
       inkscape:export-filename="/home/franco/Desktop/logo.png"
       inkscape:export-xdpi="90"
       inkscape:export-ydpi="90" />
    <path
       style="opacity:0.46700003000000001;fill:#c33a1a;fill-opacity:1;fill-rule:nonzero;stroke:none"
       d="m 318.61445,259.42209 0,-54.20275 2.54752,0 2.54754,0 0,50.95068 0,50.95067 17.36345,-0.0317 c 9.54991,-0.0174 18.98394,-0.10798 20.96453,-0.20113 l 3.60105,-0.16943 -2.6067,-1.95768 c -5.18527,-3.8942 -10.44806,-8.80193 -13.97517,-13.03232 -6.3242,-7.58522 -10.8572,-18.171 -11.92075,-27.83823 -1.50937,-13.71933 2.23103,-26.97067 10.90131,-38.62073 7.39157,-9.9319 17.93767,-16.90438 29.9126,-19.77655 4.21836,-1.01175 7.42597,-1.34625 12.90982,-1.34625 14.71505,0 26.43765,4.7554 36.99125,15.00589 10.39462,10.09606 16.07855,22.59862 16.70703,36.74926 0.55985,12.60553 -3.45202,24.58581 -11.71537,34.98433 -3.59476,4.52365 -9.29602,9.94474 -12.99717,12.35848 -4.24922,2.77119 -11.48234,6.02569 -15.98428,7.19203 -4.68079,1.21267 -10.54589,1.48953 -48.9108,2.30895 -13.56896,0.28979 -27.29548,0.60617 -30.50336,0.70306 l -5.8325,0.17615 0,-54.20275 z m 75.88969,47.69632 c 4.92249,-0.29553 7.84916,-0.76586 11.0949,-1.78298 11.14948,-3.49394 20.53112,-10.73213 26.60462,-20.52623 5.85607,-9.44345 8.20366,-19.46779 7.37923,-31.50955 -0.80457,-11.75136 -3.78661,-18.93661 -11.55857,-27.85049 -2.92157,-3.35081 -7.52005,-7.50449 -10.56829,-9.54603 -4.27923,-2.86597 -10.43939,-5.44734 -15.57746,-6.52759 -4.36893,-0.91854 -16.89096,-0.92925 -21.92457,-0.0188 -11.37815,2.05815 -23.38635,10.07658 -30.0173,20.04396 -6.11609,9.19346 -8.88017,20.06347 -8.22197,32.3336 0.53349,9.94564 4.06322,19.28137 10.15198,26.85098 8.74369,10.87023 20.92273,17.63002 33.38586,18.53028 4.01766,0.2902 4.46203,0.29033 9.25157,0.003 l 0,0 z"
       id="path3106"
       inkscape:connector-curvature="0"
       inkscape:export-filename="/home/franco/Desktop/logo.png"
       inkscape:export-xdpi="90"
       inkscape:export-ydpi="90" />
    <path
       style="opacity:0.46700003000000001;fill:#c33a1a;fill-opacity:1;fill-rule:nonzero;stroke:none"
       d="m 244.67151,312.0945 c -9.60502,-1.57761 -22.18503,-7.78622 -29.68088,-14.6484 -3.93334,-3.60082 -8.88847,-10.88775 -11.78266,-17.32734 -3.5623,-7.92616 -4.90032,-14.79147 -4.65588,-23.88927 0.23252,-8.6552 1.83256,-15.15264 5.49567,-22.31687 6.84077,-13.37907 18.63598,-23.52882 32.56186,-28.01944 5.84031,-1.8833 10.22023,-2.57645 16.2605,-2.57331 8.27653,0.004 16.53976,1.9649 23.97528,5.68859 7.61974,3.81595 18.17085,12.7197 18.17085,15.33385 0,0.89004 -1.15192,1.79363 -2.28657,1.79363 -0.73199,0 -1.42531,-0.48843 -4.28235,-3.01682 -8.17311,-7.23299 -13.23978,-10.26092 -21.1858,-12.66101 -4.57301,-1.38128 -7.4296,-1.79464 -13.47062,-1.94929 -5.81262,-0.14882 -8.92683,0.10224 -13.07736,1.05442 -4.93859,1.13289 -11.01644,3.64045 -14.91744,6.15454 -6.65553,4.28929 -14.62111,13.63538 -18.33518,21.51285 -2.29622,4.87027 -2.99405,7.60847 -3.64941,14.32012 -0.44485,4.55588 -0.1633,13.986 0.51034,17.09199 1.67376,7.71741 6.2943,16.79162 11.67311,22.92457 9.74548,11.11193 24.80579,16.82285 41.04013,15.56255 19.02885,-1.47721 34.47273,-12.9392 41.56425,-30.84774 1.5763,-3.98071 3.65705,-12.25763 3.65721,-14.54777 l 4e-5,-0.73743 -24.53678,0 -24.53676,0 0,-2.72075 0,-2.72074 27.15134,0.19737 c 14.93324,0.10858 27.19924,0.24442 27.25775,0.30195 0.20965,0.20609 -0.83896,8.62684 -1.47823,11.87074 -1.22038,6.19271 -4.17448,13.59584 -7.50781,18.81493 -8.24796,12.91404 -20.89334,21.61633 -36.05772,24.81413 -2.90806,0.61325 -4.11595,0.71532 -9.49942,0.80275 -4.3507,0.0707 -6.81871,-0.006 -8.37746,-0.2628 l 0,0 z"
       id="path3108"
       inkscape:connector-curvature="0"
       inkscape:export-filename="/home/franco/Desktop/logo.png"
       inkscape:export-xdpi="90"
       inkscape:export-ydpi="90" />
    <path
       style="opacity:0.46700003;fill:#4682b4;fill-opacity:1;fill-rule:nonzero;stroke:none"
       d=""
       id="path3110"
       inkscape:connector-curvature="0" />
    <path
       style="opacity:0.46700003000000001;fill:#c33a1a;fill-opacity:1;fill-rule:nonzero;stroke:none"
       d="m 245.27229,312.06523 c -0.29498,-0.0676 -1.20002,-0.25021 -2.01122,-0.40579 -9.1573,-1.75627 -21.39845,-8.01752 -28.21897,-14.43378 -5.33755,-5.0212 -11.27974,-14.74431 -13.86469,-22.68659 -2.06331,-6.33952 -2.56378,-10.28652 -2.34413,-18.48669 0.22207,-8.28982 1.13232,-12.69366 3.94306,-19.07683 6.46256,-14.67638 18.7215,-25.9313 33.54099,-30.79395 4.90947,-1.61093 7.9792,-2.22766 12.77333,-2.56628 11.74988,-0.82993 23.5491,2.28422 33.12572,8.74286 4.07335,2.74714 7.50287,5.56615 10.06656,8.27451 2.36633,2.49985 2.90812,3.52537 2.31204,4.37636 -0.4753,0.6786 -1.69858,1.11325 -2.40137,0.85328 -0.29726,-0.10993 -2.58942,-1.91484 -5.09367,-4.01081 -2.50426,-2.09599 -5.75993,-4.61818 -7.23483,-5.60488 -5.25483,-3.51548 -10.89937,-5.77846 -17.83274,-7.14945 -2.97373,-0.58802 -13.13569,-0.84645 -16.7097,-0.42494 -4.79081,0.56499 -11.08736,2.52898 -16.03792,5.00241 -8.10016,4.04708 -16.99567,13.59211 -21.71963,23.30552 -3.03419,6.23892 -3.99194,11.24511 -3.99194,20.86623 0,8.29808 0.4701,11.3929 2.59184,17.06344 2.78006,7.42996 6.62644,13.55506 11.74102,18.69678 8.5129,8.55807 19.69968,13.22152 32.86356,13.69985 20.41815,0.74194 37.82715,-9.6278 46.39876,-27.6376 2.27933,-4.7891 4.63668,-12.73145 5.00473,-16.86187 l 0.1613,-1.81009 -24.57568,0 -24.57565,0 0,-2.706 0,-2.70601 16.29081,0.16231 c 8.95994,0.0892 21.14787,0.23507 27.08431,0.32402 l 10.7935,0.1617 -0.001,1.24231 c -0.001,1.78175 -1.26648,10.24303 -1.90952,12.77324 -3.47272,13.66435 -11.60393,25.2268 -23.22469,33.02517 -5.12163,3.43698 -12.2143,6.43047 -19.05878,8.04387 -2.61558,0.61655 -3.50606,0.68468 -10.10861,0.77337 -3.9822,0.0534 -7.48171,0.0419 -7.77669,-0.0257 l -2e-5,0 z"
       id="path3112"
       inkscape:connector-curvature="0"
       inkscape:export-filename="/home/franco/Desktop/logo.png"
       inkscape:export-xdpi="90"
       inkscape:export-ydpi="90" />
    <path
       style="opacity:0.46700003000000001;fill:#c33a1a;fill-opacity:1;fill-rule:nonzero;stroke:none"
       d="m 247.14942,313.27658 c -12.39383,-1.26499 -24.66285,-7.10516 -33.5077,-15.95001 -9.46565,-9.46565 -15.53814,-22.884 -16.19834,-35.79333 -0.71619,-14.00416 3.01897,-26.31885 11.39735,-37.57674 7.49079,-10.0652 19.85676,-17.87167 32.44505,-20.48207 17.88359,-3.70849 36.04234,1.46211 49.5672,14.11395 1.72156,1.61044 6.05245,6.57745 6.02994,6.91561 -0.0156,0.23496 -2.42644,1.96605 -2.55666,1.83584 -0.0619,-0.0618 0.18882,-0.39536 0.55696,-0.74122 0.38014,-0.35711 0.66823,-0.92724 0.66677,-1.31951 -0.0105,-2.67909 -10.96238,-11.95416 -18.53003,-15.69225 -12.90787,-6.37591 -27.76334,-7.45141 -41.15193,-2.97931 -10.56177,3.5279 -19.8691,10.28986 -26.77929,19.45574 -7.03112,9.32627 -10.61898,19.30087 -11.06171,30.75265 -0.51374,13.28847 3.8228,26.17695 12.58188,37.39422 4.42744,5.66999 11.12139,10.68293 19.37818,14.51189 7.8784,3.65351 12.93169,4.92913 20.66566,5.21677 16.95242,0.63044 34.02073,-7.35425 44.71093,-20.91609 6.77944,-8.60059 10.46224,-17.52146 11.97807,-29.01458 0.36221,-2.74626 0.50202,-3.35638 0.5207,-2.27236 0.0575,3.33362 -1.07764,9.66833 -2.52624,14.09838 -3.94336,12.05936 -11.63838,22.29184 -21.93055,29.16225 -6.7744,4.52217 -14.83892,7.69919 -22.58001,8.89539 -3.32042,0.5131 -10.45291,0.71376 -13.67623,0.38478 l 0,0 z"
       id="path3114"
       inkscape:connector-curvature="0"
       inkscape:export-filename="/home/franco/Desktop/logo.png"
       inkscape:export-xdpi="90"
       inkscape:export-ydpi="90" />
    <path
       style="opacity:0.46700003000000001;fill:#c33a1a;fill-opacity:1;fill-rule:nonzero;stroke:none"
       d="m 291.30185,296.72942 c 2.92626,-2.99598 5.17076,-5.76717 7.19728,-8.88619 1.40807,-2.16718 1.61218,-2.40963 1.61218,-1.91502 0,0.36087 -3.30896,5.18703 -4.78563,6.97992 -1.64947,2.00269 -6.00348,6.43588 -6.32092,6.43588 -0.14116,0 0.89255,-1.17657 2.29709,-2.61459 z"
       id="path3116"
       inkscape:connector-curvature="0"
       inkscape:export-filename="/home/franco/Desktop/logo.png"
       inkscape:export-xdpi="90"
       inkscape:export-ydpi="90" />
    <path
       style="opacity:0.46700003;fill:#4682b4;fill-opacity:1;fill-rule:nonzero;stroke:none"
       d=""
       id="path3118"
       inkscape:connector-curvature="0" />
    <path
       style="opacity:0.46700003;fill:#4682b4;fill-opacity:1;fill-rule:nonzero;stroke:none"
       d=""
       id="path3120"
       inkscape:connector-curvature="0" />
    <path
       style="opacity:0.46700003000000001;fill:#c33a1a;fill-opacity:1;fill-rule:nonzero;stroke:none"
       d="m 242.18844,311.31803 c -7.61793,-1.82526 -16.13322,-5.83788 -23.06188,-10.86731 -7.80776,-5.66755 -15.21165,-16.91581 -18.47702,-28.07093 -1.35426,-4.62645 -1.50102,-6.00158 -1.50102,-14.06448 0,-9.81003 0.49746,-13.14103 2.85415,-19.11176 3.01407,-7.63614 7.05666,-13.77583 12.94399,-19.65873 10.12053,-10.11289 23.79648,-15.90621 37.60462,-15.9298 12.60109,-0.0215 24.39745,4.27422 34.82236,12.68088 2.63484,2.12475 6.7523,6.36145 7.11852,7.3247 0.35596,0.93627 -0.23772,1.86812 -1.34518,2.11136 -0.66984,0.14718 -1.01586,0.0202 -1.94518,-0.71415 -0.62173,-0.49119 -3.0648,-2.44267 -5.42906,-4.33659 -2.36426,-1.89393 -5.2037,-4.04021 -6.30986,-4.76953 -5.57218,-3.67382 -13.53181,-6.52549 -20.07349,-7.19163 -4.05986,-0.4134 -12.87903,-0.3585 -15.4579,0.0963 -6.87189,1.21175 -13.48857,3.75973 -18.63722,7.1769 -2.99086,1.98503 -9.48107,8.2811 -11.97587,11.61762 -5.03434,6.73286 -7.883,12.77133 -9.10838,19.30761 -0.42769,2.28126 -0.5006,3.96278 -0.48832,11.26279 0.0162,9.59747 0.1799,10.82388 2.16174,16.18978 5.99866,16.24158 17.64588,27.28051 32.96273,31.24119 5.29222,1.3685 7.36034,1.61124 13.80056,1.61986 6.28369,0.009 8.39128,-0.22545 13.24689,-1.46999 12.0818,-3.09663 22.49213,-10.87343 28.95532,-21.63036 3.15203,-5.24604 6.22651,-13.73078 7.11981,-19.64869 0.16696,-1.10617 0.35737,-2.34306 0.42309,-2.74866 l 0.11954,-0.73744 -24.66415,0 -24.66414,0 0,-2.68289 0,-2.68286 12.13429,0.15859 c 6.67388,0.0872 18.79556,0.24277 26.93708,0.34567 8.14153,0.10286 14.87152,0.25581 14.95554,0.33983 0.19814,0.19813 -0.27176,4.52615 -0.9713,8.94632 -1.74151,11.00412 -6.84562,21.488 -14.29028,29.35233 -7.647,8.07809 -16.09864,13.00139 -27.71417,16.14423 l -3.14041,0.8497 -8.17891,0.0803 c -7.73814,0.076 -8.31622,0.0475 -10.72646,-0.5301 z"
       id="path3122"
       inkscape:connector-curvature="0"
       inkscape:export-filename="/home/franco/Desktop/logo.png"
       inkscape:export-xdpi="90"
       inkscape:export-ydpi="90" />
    <path
       style="opacity:0.46700003000000001;fill:#c33a1a;fill-opacity:1;fill-rule:nonzero;stroke:none"
       d="m 241.32775,311.03551 c -6.26102,-1.65744 -13.94095,-5.16299 -19.78774,-9.0322 -8.91261,-5.89808 -16.39231,-16.2451 -20.27688,-28.0499 -1.85455,-5.63582 -2.0704,-7.59501 -1.89824,-17.22991 0.15661,-8.76542 0.36587,-10.58701 1.67293,-14.56284 4.16954,-12.68312 12.48237,-23.1999 24.11849,-30.51297 5.68445,-3.57256 12.99606,-6.2708 19.98189,-7.374 3.43911,-0.54309 10.63476,-0.61643 14.21257,-0.1449 9.68951,1.27715 18.444,4.96154 26.54798,11.17292 4.47493,3.42985 8.58117,7.65187 8.58117,8.82312 0,0.76862 -0.80275,1.47472 -1.67659,1.47472 -0.74812,0 -0.90243,-0.10903 -7.17274,-5.06603 -2.28607,-1.80727 -5.06155,-3.88985 -6.16771,-4.62797 -2.64196,-1.76288 -7.28098,-3.98647 -10.4583,-5.01286 -6.58417,-2.12699 -10.16963,-2.57783 -18.9674,-2.38499 -5.69737,0.12495 -6.32089,0.18886 -9.32363,0.95648 -9.49922,2.42843 -14.97942,5.36962 -21.241,11.39992 -8.0538,7.75635 -13.2246,16.35321 -15.14676,25.18272 -0.54997,2.52625 -0.59921,3.46489 -0.60846,11.59802 -0.009,7.49654 0.0628,9.18661 0.46618,11.05566 0.68732,3.1843 2.14107,7.23151 3.95499,11.01053 7.07641,14.74267 19.00944,23.90422 35.07542,26.92906 4.19743,0.79028 14.61379,0.86146 18.41623,0.12584 13.97373,-2.70329 24.78256,-9.74388 32.16205,-20.94953 4.01494,-6.09661 7.50653,-15.66708 8.59021,-23.5458 l 0.1752,-1.27377 -24.68727,0 -24.68728,0 0,-2.6767 0,-2.67669 8.78228,0.13845 c 28.84696,0.45458 42.24403,0.65627 43.59115,0.65627 l 1.52701,0 -0.004,1.27376 c -0.006,1.70531 -0.89621,7.87353 -1.61647,11.19575 -2.20248,10.15892 -7.40253,19.63984 -14.86025,27.09385 -6.2952,6.29206 -13.30972,10.58299 -22.10691,13.52325 -6.50747,2.17496 -6.36581,2.15612 -16.10058,2.14183 -8.24099,-0.012 -8.86306,-0.0477 -11.06737,-0.6311 l 0,0 z"
       id="path3124"
       inkscape:connector-curvature="0"
       inkscape:export-filename="/home/franco/Desktop/logo.png"
       inkscape:export-xdpi="90"
       inkscape:export-ydpi="90" />
    <path
       style="opacity:0.46700003000000001;fill:#c33a1a;fill-opacity:1;fill-rule:nonzero;stroke:none"
       d="m 243.39517,311.42949 c -5.18139,-0.82007 -15.36126,-5.23404 -21.59718,-9.36455 -7.53967,-4.99403 -13.73832,-12.54186 -18.06563,-21.99773 -1.56553,-3.42093 -3.27024,-8.45607 -3.80194,-11.2297 -1.00815,-5.25898 -0.68744,-19.8024 0.53961,-24.47087 4.04456,-15.38787 16.0944,-29.35553 31.01501,-35.95127 3.66733,-1.62117 8.78037,-3.22448 12.44645,-3.90288 4.17726,-0.77298 14.20305,-0.71245 18.28063,0.11038 9.49057,1.91517 17.3252,5.60678 24.89947,11.73245 2.77732,2.24617 6.95168,6.47687 7.21775,7.3152 0.40562,1.27796 -1.04556,2.31061 -2.30494,1.6402 -0.34559,-0.18397 -2.67978,-1.92902 -5.18708,-3.87789 -6.85414,-5.32756 -8.55131,-6.47702 -12.06726,-8.17299 -8.02967,-3.87322 -13.86182,-4.99299 -24.73288,-4.74874 -5.30499,0.11924 -6.47494,0.22598 -8.9214,0.81418 -3.94547,0.94861 -7.94619,2.38521 -11.39685,4.09242 -10.04121,4.9679 -20.51463,17.24458 -24.23388,28.40643 -1.64437,4.93488 -1.77632,6.10961 -1.77709,15.82076 -5e-4,6.48985 0.099,9.34982 0.37291,10.72646 0.96289,4.83812 4.5504,13.17275 7.67583,17.83274 7.61743,11.35756 18.81789,18.4405 32.71111,20.68581 3.26492,0.52765 14.11329,0.4622 17.16234,-0.1035 13.40751,-2.48776 24.5762,-9.69243 31.90667,-20.58226 4.13042,-6.13599 7.69921,-15.76904 8.86669,-23.93341 l 0.18214,-1.27378 -24.7013,0 -24.70129,0 0,-2.69569 0,-2.69569 5.29618,0.15192 c 2.9129,0.0834 15.01034,0.28243 26.88319,0.44195 11.87284,0.15951 21.63621,0.33777 21.69637,0.39611 0.20083,0.19484 -0.55047,6.3687 -1.21445,9.97976 -1.58901,8.64182 -4.95895,16.50939 -9.95835,23.249 -2.13774,2.88186 -6.92514,7.87168 -9.71909,10.13002 -5.90074,4.76955 -13.20389,8.39216 -21.85515,10.84093 -2.32232,0.65734 -2.73753,0.68622 -10.99463,0.76481 -4.71963,0.0449 -9.18453,-0.0135 -9.92196,-0.1305 l 0,0 z"
       id="path3126"
       inkscape:connector-curvature="0"
       inkscape:export-filename="/home/franco/Desktop/logo.png"
       inkscape:export-xdpi="90"
       inkscape:export-ydpi="90" />
    <path
       style="opacity:0.46700003000000001;fill:#c33a1a;fill-opacity:1;fill-rule:nonzero;stroke:none"
       d="m 244.46781,311.42961 c -2.79165,-0.24223 -5.05789,-0.89014 -9.92198,-2.83662 -10.52678,-4.21253 -17.60459,-9.1962 -23.47151,-16.52683 -5.13997,-6.42236 -9.73384,-16.03894 -11.09292,-23.2215 -0.6139,-3.24433 -0.79639,-9.3801 -0.46514,-15.63923 0.34135,-6.44998 0.68368,-8.45659 2.12485,-12.4547 3.33183,-9.24328 8.6689,-17.04804 15.96573,-23.34781 6.17579,-5.33191 11.93066,-8.60156 19.48652,-11.07133 9.04767,-2.95739 19.42901,-3.25554 28.82497,-0.82783 6.93014,1.7906 13.80503,5.20478 20.04438,9.9544 2.61606,1.99144 6.83931,6.00602 7.84531,7.45767 0.67015,0.96703 0.71624,1.16132 0.41084,1.73196 -0.46667,0.87197 -1.49226,1.09376 -2.38191,0.51511 -0.38997,-0.25366 -3.18284,-2.3551 -6.20636,-4.66987 -3.02351,-2.31477 -6.21908,-4.66842 -7.10124,-5.23035 -3.97321,-2.53083 -10.3089,-4.97802 -15.71235,-6.06895 -2.77134,-0.55952 -3.79393,-0.61878 -10.70659,-0.62049 -8.70556,-0.001 -9.68862,0.13275 -15.81812,2.16957 -7.46926,2.48209 -11.70768,5.12362 -17.59838,10.9679 -5.75616,5.71077 -9.92005,11.74263 -12.41127,17.97907 -1.49058,3.73147 -2.13753,6.42387 -2.47798,10.31251 -0.39883,4.55581 -0.14957,16.40778 0.39768,18.9054 0.94087,4.29432 3.95337,11.51191 6.60362,15.82151 7.25251,11.79343 19.06346,19.70063 32.85737,21.99741 3.51856,0.58586 10.13721,0.78324 14.35097,0.42797 10.0457,-0.84695 20.08133,-5.17042 27.64674,-11.91052 6.52204,-5.81054 11.112,-13.05172 14.17018,-22.3551 1.19553,-3.63695 2.69354,-9.96447 2.69354,-11.37738 0,-0.50371 -0.52488,-0.51466 -24.67085,-0.51466 l -24.67085,0 0,-2.71217 0,-2.71215 4.22354,0.1636 c 2.32294,0.09 14.42039,0.30027 26.88318,0.46734 12.46281,0.16704 22.71105,0.34965 22.7739,0.40577 0.20429,0.18247 -0.79212,7.65163 -1.47967,11.09165 -3.40114,17.01702 -14.54745,31.45512 -30.00948,38.87205 -3.33055,1.59763 -7.90481,3.28682 -11.33348,4.18524 -2.43162,0.63718 -3.11729,0.69091 -9.98535,0.78246 -4.05594,0.0541 -8.4605,0.004 -9.78789,-0.11111 z"
       id="path3128"
       inkscape:connector-curvature="0"
       inkscape:export-filename="/home/franco/Desktop/logo.png"
       inkscape:export-xdpi="90"
       inkscape:export-ydpi="90" />
    <path
       style="opacity:0.46700003000000001;fill:#c33a1a;fill-opacity:1;fill-rule:nonzero;stroke:none"
       d="m 244.60189,311.43805 c -2.80328,-0.24241 -5.45455,-0.99122 -10.07735,-2.8462 -12.8196,-5.14411 -21.05821,-11.81194 -27.36523,-22.1478 -3.29685,-5.40282 -6.17392,-12.47038 -7.24788,-17.80452 -0.40941,-2.03345 -0.47968,-3.63796 -0.44631,-10.19015 0.0571,-11.21998 0.55803,-14.18369 3.59301,-21.25946 5.26798,-12.28175 16.31385,-23.5087 28.19211,-28.65421 8.10455,-3.51079 15.33865,-4.90614 23.67586,-4.56674 9.34808,0.38056 17.41161,2.81552 25.49716,7.69943 4.88923,2.95322 11.46789,8.48139 13.38476,11.24743 0.67015,0.96703 0.71624,1.16132 0.41084,1.73196 -0.46618,0.87105 -1.49191,1.09358 -2.38191,0.51674 -0.38997,-0.25277 -2.94149,-2.17017 -5.67004,-4.26093 -2.72854,-2.09076 -5.79589,-4.37197 -6.81631,-5.06936 -3.91869,-2.67815 -10.60786,-5.36424 -16.51373,-6.63125 -2.543,-0.54555 -3.56885,-0.60539 -10.59237,-0.61784 -8.79664,-0.0156 -9.65969,0.10035 -15.82154,2.12374 -7.88283,2.58864 -13.05993,5.94162 -19.21466,12.44453 -6.47696,6.84334 -10.9736,14.69572 -12.7243,22.2201 -0.59049,2.53792 -0.68967,3.70991 -0.82283,9.72385 -0.24648,11.13075 0.25128,14.53456 3.16001,21.60894 1.58635,3.85825 3.73502,7.77499 6.13481,11.18299 2.23853,3.17897 7.47201,8.40471 10.72931,10.7134 2.89448,2.05153 8.41363,4.88297 11.82018,6.06397 4.96027,1.71964 11.32089,2.71311 17.40942,2.7192 17.53864,0.0175 33.13794,-8.63326 41.93306,-23.25443 3.40253,-5.65646 6.52244,-14.68466 7.5545,-21.86075 l 0.18319,-1.27377 -24.7013,0 -24.70129,0 0,-2.68042 0,-2.68044 6.36883,0.14251 c 9.77552,0.21865 38.84657,0.65976 43.47679,0.65972 l 4.12413,-5e-5 -0.18403,1.94417 c -0.86008,9.08651 -2.70537,16.10544 -6.01264,22.87013 -6.38176,13.05331 -17.09653,22.60792 -31.08369,27.7181 -6.10306,2.22975 -7.18818,2.40729 -15.54321,2.54332 -4.0964,0.0666 -8.4737,0.0325 -9.72735,-0.0758 z"
       id="path3130"
       inkscape:connector-curvature="0"
       inkscape:export-filename="/home/franco/Desktop/logo.png"
       inkscape:export-xdpi="90"
       inkscape:export-ydpi="90" />
    <path
       style="opacity:0.46700003000000001;fill:#c33a1a;fill-opacity:1;fill-rule:nonzero;stroke:none"
       d="m 244.33373,311.41666 c -5.01352,-0.45325 -15.03763,-4.53902 -21.58699,-8.79872 -9.79228,-6.3689 -17.17372,-16.20867 -21.26493,-28.34703 -1.85867,-5.51458 -2.04265,-6.96583 -2.00575,-15.82153 0.0502,-12.02011 0.78046,-15.63535 4.79357,-23.72677 8.45725,-17.05197 25.13378,-28.8025 43.43128,-30.60235 5.70147,-0.56082 12.89205,-0.0167 18.21981,1.37864 8.83347,2.31352 17.57668,7.23145 24.48764,13.77392 2.17293,2.05707 4.0767,4.31033 4.06303,4.80894 -0.015,0.54856 -0.6746,1.20901 -1.38556,1.38745 -0.58314,0.14642 -1.22706,-0.23494 -4.13994,-2.45146 -10.21575,-7.77358 -11.43865,-8.58649 -15.81254,-10.51125 -3.07447,-1.35294 -6.81058,-2.54671 -10.32877,-3.30026 -2.49092,-0.53353 -3.5865,-0.59821 -10.42601,-0.61554 -8.35956,-0.0212 -9.26772,0.0808 -14.37975,1.61453 -5.58135,1.67452 -10.10384,3.85973 -14.04536,6.7865 -2.38898,1.77395 -7.87748,7.17386 -9.97562,9.8146 -5.03672,6.33929 -8.46444,13.30951 -9.77974,19.88705 -0.70474,3.52424 -0.704,18.76746 0.001,22.06542 1.06076,4.96167 4.38287,12.55871 7.62864,17.4453 10.06575,15.15418 27.14926,22.81383 46.60484,20.89598 12.28277,-1.21077 24.01197,-7.30159 31.69634,-16.45948 5.00203,-5.96119 8.3504,-12.5469 10.65552,-20.9576 0.81959,-2.9904 1.73693,-7.39469 1.73938,-8.35087 6.9e-4,-0.26574 -5.11162,-0.33521 -24.66998,-0.33521 l -24.67085,0 0,-2.71284 0,-2.71284 5.56434,0.16625 c 3.0604,0.0914 15.15783,0.30097 26.88319,0.46567 11.72536,0.16469 21.37023,0.34641 21.43309,0.40383 0.20459,0.18691 -0.79268,7.65705 -1.47783,11.06979 -3.3418,16.64559 -14.12922,30.90923 -29.0056,38.35256 -3.68461,1.84358 -6.95636,3.1499 -10.8278,4.32324 -2.35078,0.71246 -3.44593,0.87835 -7.07209,1.07126 -4.91699,0.26158 -11.40977,0.25834 -14.34663,-0.007 l 0,0 z"
       id="path3132"
       inkscape:connector-curvature="0"
       inkscape:export-filename="/home/franco/Desktop/logo.png"
       inkscape:export-xdpi="90"
       inkscape:export-ydpi="90" />
    <path
       style="opacity:0.46700003000000001;fill:#c33a1a;fill-opacity:1;fill-rule:nonzero;stroke:none"
       d="m 298.84733,255.70339 c 0.85345,-0.0534 2.18085,-0.0529 2.94978,0.001 0.76893,0.0541 0.0708,0.0976 -1.55172,0.097 -1.62237,-6.2e-4 -2.25151,-0.0447 -1.39806,-0.0983 z"
       id="path3134"
       inkscape:connector-curvature="0"
       inkscape:export-filename="/home/franco/Desktop/logo.png"
       inkscape:export-xdpi="90"
       inkscape:export-ydpi="90" />
    <path
       style="opacity:0.46700003000000001;fill:#c33a1a;fill-opacity:1;fill-rule:nonzero;stroke:none"
       d="m 299.51275,255.70751 c 0.48197,-0.0596 1.20601,-0.0585 1.60897,0.003 0.40295,0.0613 0.009,0.11008 -0.87633,0.10858 -0.88493,-0.001 -1.21463,-0.0515 -0.73264,-0.11128 z"
       id="path3136"
       inkscape:connector-curvature="0"
       inkscape:export-filename="/home/franco/Desktop/logo.png"
       inkscape:export-xdpi="90"
       inkscape:export-ydpi="90" />
    <path
       style="opacity:0.46700003000000001;fill:#c33a1a;fill-opacity:1;fill-rule:nonzero;stroke:none"
       d="m 252.69922,257.9801 -0.0526,-3.15089 27.62064,0 c 25.31322,0 27.62063,0.0363 27.62063,0.43561 0,0.39984 -2.2507,0.42735 -27.41951,0.3352 l -27.41951,-0.10045 -0.14867,2.8157 -0.14866,2.81569 -0.0526,-3.1509 z"
       id="path3138"
       inkscape:connector-curvature="0"
       inkscape:export-filename="/home/franco/Desktop/logo.png"
       inkscape:export-xdpi="90"
       inkscape:export-ydpi="90" />
    <path
       style="opacity:0.46700003000000001;fill:#c33a1a;fill-opacity:1;fill-rule:nonzero;stroke:none"
       d="m 293.74248,255.43331 c 1.88048,-0.0461 4.95762,-0.0461 6.83812,0 1.88048,0.0461 0.34191,0.0838 -3.41906,0.0838 -3.76096,0 -5.29956,-0.0377 -3.41906,-0.0838 z"
       id="path3140"
       inkscape:connector-curvature="0"
       inkscape:export-filename="/home/franco/Desktop/logo.png"
       inkscape:export-xdpi="90"
       inkscape:export-ydpi="90" />
    <path
       style="opacity:0.46700003000000001;fill:#c33a1a;fill-opacity:1;fill-rule:nonzero;stroke:none"
       d="m 244.33373,311.43328 c -3.78725,-0.38875 -8.17907,-1.88101 -14.6148,-4.96584 -12.03731,-5.76982 -19.83804,-13.59604 -25.61739,-25.70103 -4.00708,-8.39299 -5.03413,-13.88338 -4.67629,-24.99864 0.31969,-9.92949 1.17567,-13.64812 4.84438,-21.04516 7.88979,-15.90782 22.76586,-27.15188 39.93001,-30.18105 5.47864,-0.96687 13.6198,-0.78216 19.53935,0.44331 9.26333,1.91774 19.07242,7.13808 26.42785,14.06475 2.38652,2.24739 4.31308,4.50252 4.31308,5.04861 0,0.52654 -1.04745,1.50138 -1.61321,1.50138 -0.28583,0 -3.45288,-2.21189 -7.03789,-4.91532 -8.50778,-6.41563 -11.03603,-7.85808 -17.4632,-9.96348 -4.77913,-1.56552 -7.59186,-2.01278 -13.78962,-2.19271 -8.89921,-0.25835 -13.78865,0.45936 -20.46306,3.00372 -5.94788,2.2674 -10.21647,5.06562 -15.11925,9.9113 -5.05045,4.9916 -8.41565,9.49278 -11.12689,14.88295 -3.34269,6.64558 -4.26648,11.36298 -4.27978,21.85515 -0.0105,7.82017 0.49798,11.21661 2.46614,16.49192 6.02247,16.1422 17.64378,27.03458 33.04757,30.97471 4.23485,1.08323 6.37262,1.39145 11.26664,1.62431 11.09322,0.5278 21.44763,-2.27066 30.18837,-8.15894 9.7739,-6.58425 16.29201,-15.86662 19.92101,-28.36919 0.85877,-2.95859 2.04801,-8.39292 2.04801,-9.35849 0,-0.33658 -3.30406,-0.38862 -24.67085,-0.38862 l -24.67085,0 0,-2.68161 c 0,-2.60386 0.0174,-2.68146 0.60336,-2.67587 0.33184,0.003 10.86055,0.1814 23.39709,0.3961 12.53653,0.2147 24.40928,0.39313 26.38384,0.3965 l 3.59013,0.006 -0.18536,2.07825 c -0.77137,8.64824 -2.70948,15.9729 -6.01598,22.73607 -6.64381,13.58928 -17.74685,23.19268 -32.75604,28.33178 -4.84959,1.66048 -5.93048,1.8078 -14.20916,1.93654 -4.2053,0.0655 -8.55104,0.026 -9.65721,-0.0875 z"
       id="path3142"
       inkscape:connector-curvature="0"
       inkscape:export-filename="/home/franco/Desktop/logo.png"
       inkscape:export-xdpi="90"
       inkscape:export-ydpi="90" />
    <path
       style="opacity:0.46700003;fill:#4682b4;fill-opacity:1;fill-rule:nonzero;stroke:none"
       d=""
       id="path3144"
       inkscape:connector-curvature="0" />
    <path
       style="opacity:0.46700003;fill:#4682b4;fill-opacity:1;fill-rule:nonzero;stroke:none"
       d=""
       id="path3146"
       inkscape:connector-curvature="0" />
    <path
       style="opacity:0.46700003;fill:#4682b4;fill-opacity:1;fill-rule:nonzero;stroke:none"
       d=""
       id="path3148"
       inkscape:connector-curvature="0" />
    <path
       style="opacity:0.46700003;fill:#4682b4;fill-opacity:1;fill-rule:nonzero;stroke:none"
       d=""
       id="path3150"
       inkscape:connector-curvature="0" />
    <path
       style="opacity:0.46700003;fill:#4682b4;fill-opacity:1;fill-rule:nonzero;stroke:none"
       d=""
       id="path3152"
       inkscape:connector-curvature="0" />
    <path
       style="opacity:0.46700003;fill:#4682b4;fill-opacity:1;fill-rule:nonzero;stroke:none"
       d=""
       id="path3154"
       inkscape:connector-curvature="0" />
    <path
       style="opacity:0.46700003;fill:#4682b4;fill-opacity:1;fill-rule:nonzero;stroke:none"
       d=""
       id="path3156"
       inkscape:connector-curvature="0" />
    <path
       style="opacity:0.46700003;fill:#4682b4;fill-opacity:1;fill-rule:nonzero;stroke:none"
       d=""
       id="path3158"
       inkscape:connector-curvature="0" />
    <path
       style="opacity:0.46700003;fill:#4682b4;fill-opacity:1;fill-rule:nonzero;stroke:none"
       d=""
       id="path3162"
       inkscape:connector-curvature="0" />
    <path
       style="opacity:0.46700003;fill:#4682b4;fill-opacity:1;fill-rule:nonzero;stroke:none"
       d=""
       id="path3164"
       inkscape:connector-curvature="0" />
    <path
       style="opacity:0.46700003;fill:#4682b4;fill-opacity:1;fill-rule:nonzero;stroke:none"
       d=""
       id="path3166"
       inkscape:connector-curvature="0" />
    <path
       style="opacity:0.46700003;fill:#4682b4;fill-opacity:1;fill-rule:nonzero;stroke:none"
       d=""
       id="path3168"
       inkscape:connector-curvature="0" />
    <path
       style="opacity:0.46700003;fill:#4682b4;fill-opacity:1;fill-rule:nonzero;stroke:none"
       d=""
       id="path3170"
       inkscape:connector-curvature="0" />
    <path
       style="opacity:0.46700003;fill:#4682b4;fill-opacity:1;fill-rule:nonzero;stroke:none"
       d=""
       id="path3172"
       inkscape:connector-curvature="0" />
    <path
       style="opacity:0.46700003;fill:#4682b4;fill-opacity:1;fill-rule:nonzero;stroke:none"
       d=""
       id="path3178"
       inkscape:connector-curvature="0" />
    <path
       style="opacity:0.46700003;fill:#4682b4;fill-opacity:1;fill-rule:nonzero;stroke:none"
       d=""
       id="path3180"
       inkscape:connector-curvature="0" />
    <path
       style="opacity:0.46700003000000001;fill:#c33a1a;fill-opacity:1;fill-rule:nonzero;stroke:none"
       d="m 205.91671,287.22014 c -4.92869,-7.95457 -7.68607,-16.58013 -8.2404,-25.77742 -0.78324,-12.9955 2.55847,-24.7779 10.13194,-35.72373 7.25108,-10.47985 19.13755,-18.57288 31.83266,-21.67357 5.01227,-1.22421 6.42972,-1.3737 13.00582,-1.37167 5.37581,0.001 6.78112,0.0904 9.56386,0.60353 3.33204,0.61449 5.05642,1.09606 3.9783,1.11103 -0.29499,0.004 -1.26036,-0.16767 -2.14529,-0.38171 -7.40383,-1.79066 -17.95461,-1.45569 -25.87758,0.82159 -5.24173,1.50663 -11.03125,4.14479 -15.15112,6.90408 -10.26018,6.87174 -18.64224,17.74455 -22.37088,29.01846 -2.06305,6.23781 -2.86771,12.11327 -2.62381,19.15851 0.334,9.64729 2.92241,18.28569 8.02462,26.78078 0.7363,1.22593 1.28118,2.28651 1.21085,2.35685 -0.0703,0.0702 -0.67287,-0.75171 -1.33897,-1.82673 z"
       id="path3218"
       inkscape:connector-curvature="0"
       inkscape:export-filename="/home/franco/Desktop/logo.png"
       inkscape:export-xdpi="90"
       inkscape:export-ydpi="90" />
    <path
       style="opacity:0.46700003;fill:#4682b4;fill-opacity:1;fill-rule:nonzero;stroke:none"
       d=""
       id="path3220"
       inkscape:connector-curvature="0" />
    <path
       style="opacity:0.46700003;fill:#4682b4;fill-opacity:1;fill-rule:nonzero;stroke:none"
       d=""
       id="path3222"
       inkscape:connector-curvature="0" />
    <path
       style="opacity:0.46700003;fill:#4682b4;fill-opacity:1;fill-rule:nonzero;stroke:none"
       d=""
       id="path3224"
       inkscape:connector-curvature="0" />
    <path
       style="opacity:0.46700003;fill:#4682b4;fill-opacity:1;fill-rule:nonzero;stroke:none"
       d=""
       id="path3226"
       inkscape:connector-curvature="0" />
    <path
       style="opacity:0.46700003;fill:#4682b4;fill-opacity:1;fill-rule:nonzero;stroke:none"
       d=""
       id="path3228"
       inkscape:connector-curvature="0" />
    <path
       style="opacity:0.46700003;fill:#4682b4;fill-opacity:1;fill-rule:nonzero;stroke:none"
       d=""
       id="path3230"
       inkscape:connector-curvature="0" />
    <path
       style="opacity:0.46700003;fill:#4682b4;fill-opacity:1;fill-rule:nonzero;stroke:none"
       d=""
       id="path3232"
       inkscape:connector-curvature="0" />
    <path
       style="opacity:0.46700003;fill:#4682b4;fill-opacity:1;fill-rule:nonzero;stroke:none"
       d=""
       id="path3234"
       inkscape:connector-curvature="0" />
    <path
       style="opacity:0.46700003000000001;fill:#c33a1a;fill-opacity:1;fill-rule:nonzero;stroke:none"
       d="m 290.59157,226.57186 c -1.80082,-2.17778 -1.80499,-2.3115 -0.0303,-0.97157 1.34297,1.01396 1.63167,1.1256 2.58127,0.99825 0.58805,-0.0788 1.06918,-0.11504 1.06918,-0.0803 0,0.0347 -0.51286,0.42581 -1.13969,0.86911 l -1.13969,0.80601 -1.34081,-1.62148 z"
       id="path3236"
       inkscape:connector-curvature="0"
       inkscape:export-filename="/home/franco/Desktop/logo.png"
       inkscape:export-xdpi="90"
       inkscape:export-ydpi="90" />
    <path
       style="opacity:0.46700003000000001;fill:#c33a1a;fill-opacity:1;fill-rule:nonzero;stroke:none"
       d="m 291.16874,227.05599 c -0.85645,-1.07339 -0.79156,-1.46272 0.13561,-0.81332 0.33732,0.23627 1.03226,0.42959 1.54431,0.42959 l 0.931,0 -0.90868,0.67041 c -0.49978,0.3687 -0.91541,0.67039 -0.92363,0.67039 -0.007,0 -0.35857,-0.43069 -0.77858,-0.95707 z"
       id="path3238"
       inkscape:connector-curvature="0"
       inkscape:export-filename="/home/franco/Desktop/logo.png"
       inkscape:export-xdpi="90"
       inkscape:export-ydpi="90" />
    <path
       style="opacity:0.46700003000000001;fill:#c33a1a;fill-opacity:1;fill-rule:nonzero;stroke:none"
       d="m 242.67586,311.26319 c -2.6451,-0.50635 -7.0301,-2.05042 -11.32577,-3.98809 -10.26253,-4.62919 -17.30498,-10.44448 -23.13518,-19.10386 -3.24494,-4.81958 -6.80915,-12.92657 -8.07588,-18.36905 -0.69326,-2.97854 -0.95811,-12.2559 -0.52942,-18.5451 0.34052,-4.99578 1.00332,-8.0798 2.59604,-12.0792 5.59138,-14.04035 16.51982,-25.31577 30.18013,-31.13834 9.07301,-3.86728 18.69749,-5.04429 28.82095,-3.52459 7.33274,1.10075 14.76049,4.0895 21.69857,8.73097 4.48811,3.00248 10.22465,8.23164 11.35366,10.34947 0.26447,0.49609 0.21593,0.70038 -0.3122,1.31437 -0.5021,0.58373 -0.76757,0.69129 -1.34712,0.54583 -0.397,-0.0996 -3.41418,-2.21855 -6.70487,-4.70871 -3.2907,-2.49013 -6.81792,-5.0397 -7.8383,-5.66568 -3.74106,-2.29512 -9.47561,-4.55961 -14.23184,-5.61997 -5.07456,-1.13134 -15.79287,-1.31861 -21.24429,-0.37122 -5.53273,0.96153 -13.35438,4.19646 -17.85986,7.38661 -3.1552,2.23407 -9.12354,8.19929 -11.84414,11.83792 -3.84908,5.14793 -6.81244,11.03901 -8.12201,16.14638 -0.81034,3.16038 -1.08113,6.50961 -1.08404,13.40808 -0.003,6.52086 0.22381,9.46221 0.95581,12.40811 1.18824,4.78213 4.9146,12.71761 8.08791,17.22372 2.67837,3.80329 8.08018,9.08277 11.86618,11.59748 6.83297,4.53852 14.42586,7.22263 22.52556,7.96281 16.46319,1.5045 30.57506,-3.46885 41.16278,-14.50668 4.62256,-4.81907 7.80881,-9.89923 10.45767,-16.67365 1.39413,-3.56546 3.23783,-10.46692 3.51255,-13.14836 l 0.18232,-1.77958 -24.5738,0 -24.57381,0 0,-2.68565 0,-2.68566 6.36883,0.14837 c 8.6799,0.20223 39.1545,0.66419 43.81568,0.66419 l 3.77842,0 -0.17956,1.81008 c -0.28801,2.90314 -1.45865,9.90357 -2.03096,12.14508 -4.22883,16.56269 -15.73034,30.23021 -31.14927,37.01544 -3.03271,1.33455 -8.0844,3.09499 -10.413,3.62873 -2.50338,0.57381 -18.13939,0.77669 -20.78774,0.26973 z"
       id="path3240"
       inkscape:connector-curvature="0"
       inkscape:export-filename="/home/franco/Desktop/logo.png"
       inkscape:export-xdpi="90"
       inkscape:export-ydpi="90" />
    <path
       style="opacity:0.46700003000000001;fill:#c33a1a;fill-opacity:1;fill-rule:nonzero;stroke:none"
       d="m 318.70486,259.34388 0,-54.16861 2.54753,0 2.54754,0 0,50.95068 0,50.95068 18.97241,-0.0334 c 10.43484,-0.0184 19.81327,-0.10889 20.84097,-0.20112 l 1.86855,-0.16781 -3.34342,-2.5929 c -8.71088,-6.75546 -14.53242,-13.16342 -18.59894,-20.47242 -8.55019,-15.36777 -8.987,-33.3058 -1.1961,-49.12033 4.59354,-9.32431 12.09009,-17.67937 20.3768,-22.71035 6.76586,-4.10764 14.40801,-6.67796 22.10163,-7.43351 3.83979,-0.3771 11.85937,-0.17192 15.13594,0.38724 12.21334,2.08425 22.88684,8.22275 31.31149,18.00773 6.3041,7.32204 10.44072,15.64129 12.26718,24.67085 3.08585,15.25572 -0.3467,29.89207 -9.9906,42.59981 -2.57389,3.39161 -8.81981,9.66714 -11.94849,12.00516 -4.17011,3.11624 -12.81034,7.19927 -18.01939,8.51526 -4.17477,1.05467 -10.98822,1.39834 -40.49239,2.04236 -10.32421,0.22536 -23.65853,0.52884 -29.63183,0.6744 -5.9733,0.14552 -11.73541,0.2647 -12.80472,0.26474 l -1.94416,7e-5 0,-54.16861 z m 76.69417,47.71916 c 4.6725,-0.33221 8.113,-0.99716 11.83873,-2.28811 9.84514,-3.41126 18.71128,-10.3734 24.47894,-19.22213 4.11096,-6.30702 6.72685,-13.43583 7.64662,-20.83865 0.3651,-2.93836 0.36298,-11.09338 -0.003,-14.43127 -1.14787,-10.44796 -4.97481,-18.2162 -13.17748,-26.7487 -6.32621,-6.58061 -11.81542,-10.21259 -19.2489,-12.73623 -4.72787,-1.6051 -6.74664,-1.90516 -13.86081,-2.06038 -9.52308,-0.20776 -14.62102,0.46745 -20.41038,2.70331 -8.03626,3.10361 -16.05623,9.07329 -21.12152,15.7219 -4.66642,6.125 -8.17808,14.54756 -9.41127,22.57247 -0.65129,4.23819 -0.64515,12.69096 0.012,16.70689 1.50661,9.20516 5.5408,17.65596 11.61083,24.32226 6.25206,6.86622 13.22341,11.58386 20.86435,14.11926 6.72974,2.23305 12.10263,2.79649 20.78251,2.17938 l 0,0 z"
       id="path3242"
       inkscape:connector-curvature="0"
       inkscape:export-filename="/home/franco/Desktop/logo.png"
       inkscape:export-xdpi="90"
       inkscape:export-ydpi="90" />
    <path
       style="opacity:0.46700003;fill:#191970;fill-opacity:1;fill-rule:nonzero;stroke:none"
       d=""
       id="path3246"
       inkscape:connector-curvature="0" />
    <path
       style="opacity:0.46700003000000001;fill:#c33a1a;fill-opacity:1;fill-rule:nonzero;stroke:none"
       d="m 260.84649,260.96949 c 4.1741,-0.0571 11.00446,-0.0571 15.17857,0 4.1741,0.0571 0.75893,0.10388 -7.58929,0.10388 -8.34821,0 -11.76339,-0.0467 -7.58928,-0.10388 z"
       id="path4020"
       inkscape:connector-curvature="0"
       inkscape:export-filename="/home/franco/Desktop/logo.png"
       inkscape:export-xdpi="90"
       inkscape:export-ydpi="90" />
    <path
       style="opacity:0.46700003000000001;fill:#c33a1a;fill-opacity:1;fill-rule:nonzero;stroke:none"
       d="m 238.97149,310.03658 c -17.74687,-6.0857 -28.38441,-15.28057 -35.04871,-30.29537 -3.7897,-8.53826 -4.71618,-13.95263 -4.26879,-24.94697 0.34605,-8.50383 1.00112,-11.6484 3.67982,-17.66442 6.97686,-15.66916 20.88032,-27.48356 37.15624,-31.57334 8.89064,-2.23402 19.68593,-1.82721 28.66001,1.08003 6.14841,1.99184 14.18044,6.68007 19.66823,11.48019 3.93395,3.441 5.59017,5.48649 5.08942,6.28564 -0.20147,0.32154 -0.67133,0.62381 -1.04413,0.67171 -0.40121,0.0515 -3.59262,-2.04267 -7.82067,-5.13197 -9.97499,-7.28841 -15.73441,-9.89809 -24.33181,-11.02511 -7.83174,-1.02665 -16.29868,-0.61695 -22.07681,1.06827 -9.38834,2.73814 -15.81263,6.84623 -22.62217,14.46601 -6.32258,7.07486 -10.67417,15.29203 -11.82083,22.32143 -1.13868,6.98042 -0.7223,20.08382 0.79442,25 1.38134,4.47739 4.21489,10.53907 6.84483,14.64285 2.68154,4.18432 8.82328,10.24776 13.39095,13.22026 4.74918,3.09061 10.5525,5.48841 16.42857,6.7879 4.22015,0.93329 15.01478,1.1248 19.67422,0.34904 17.068,-2.8417 30.70806,-13.94638 37.28823,-30.3572 1.48389,-3.7008 3.24531,-10.05626 3.68709,-13.30357 l 0.30366,-2.23214 -24.58374,0 -24.58375,0 0,-2.55092 0,-2.55091 15.625,0.23198 c 8.59375,0.12759 20.66494,0.33449 26.82487,0.45978 l 11.19986,0.22779 -0.22751,1.82329 c -1.07749,8.63527 -2.59702,14.8587 -4.89125,20.03283 -6.74742,15.21726 -18.07431,25.45221 -34.24525,30.94393 l -4.46429,1.51609 -10.35714,0.1238 -10.35715,0.1238 -3.57142,-1.2247 0,0 z"
       id="path4022"
       inkscape:connector-curvature="0"
       inkscape:export-filename="/home/franco/Desktop/logo.png"
       inkscape:export-xdpi="90"
       inkscape:export-ydpi="90" />
    <path
       style="opacity:0.46700003000000001;fill:#c33a1a;fill-opacity:1;fill-rule:nonzero;stroke:none"
       d="m 318.79291,259.27268 0,-54.10715 2.5,0 2.5,0 0,51.07143 0,51.07143 9.04885,0 c 12.35776,0 32.74239,-0.42546 32.71231,-0.68276 -0.0135,-0.11555 -1.49372,-1.3351 -3.28936,-2.7101 -5.12361,-3.92338 -13.31426,-12.26247 -15.94419,-16.23314 -4.18371,-6.3166 -6.79904,-12.42668 -8.30981,-19.41385 -1.07116,-4.95405 -1.15526,-15.30841 -0.16153,-19.88872 2.15159,-9.91711 6.18495,-18.1375 12.67564,-25.83421 7.29543,-8.65097 17.24662,-14.51518 29.33952,-17.2897 2.14339,-0.49176 4.39117,-0.61257 11.25,-0.60463 7.63464,0.009 8.915,0.0962 11.71494,0.7989 12.10818,3.03894 22.39451,9.73805 29.9732,19.52043 7.88816,10.18184 11.45157,20.51798 11.45635,33.23064 0.003,8.26881 -1.31213,14.1911 -4.79246,21.57962 -2.96566,6.2959 -5.8709,10.28111 -11.89478,16.31642 -2.9622,2.96782 -6.10903,5.85081 -6.99296,6.40664 -4.73052,2.97462 -11.21804,6.0703 -15.53572,7.41326 -4.25181,1.32248 -11.14414,1.76092 -37.5,2.38552 -8.64285,0.20483 -22.38392,0.53059 -30.53571,0.72393 -8.15179,0.19333 -15.58482,0.35189 -16.51786,0.35235 l -1.69643,8.3e-4 0,-54.10714 z m 83.39286,47.03539 c 1.76786,-0.38457 4.74107,-1.28688 6.60714,-2.00511 15.40017,-5.92741 26.80545,-19.75235 30.24609,-36.6629 0.76466,-3.75829 0.85502,-15.49488 0.15241,-19.79596 -1.03584,-6.34091 -3.86804,-13.11336 -7.6311,-18.24775 -0.99427,-1.35659 -4.08201,-4.71653 -6.86164,-7.46653 -5.77329,-5.71175 -9.37161,-8.17389 -15.37772,-10.52216 -6.34835,-2.48208 -6.97669,-2.58785 -16.50454,-2.77837 -7.09336,-0.14183 -9.31219,-0.0632 -12.29679,0.43588 -9.12864,1.52642 -17.61534,6.07148 -24.99019,13.38352 -5.54177,5.49457 -8.84188,10.93194 -11.55172,19.03299 -1.72603,5.15993 -2.32452,9.37093 -2.32622,16.36735 -0.002,9.10642 1.35087,15.31394 4.85068,22.25343 2.48659,4.93047 4.94845,8.25818 9.42189,12.7356 7.55474,7.56147 15.4538,11.82366 25.47419,13.74542 3.86493,0.74124 16.52579,0.45168 20.78752,-0.47541 l 0,0 z"
       id="path4024"
       inkscape:connector-curvature="0"
       inkscape:export-filename="/home/franco/Desktop/logo.png"
       inkscape:export-xdpi="90"
       inkscape:export-ydpi="90" />
    <path
       style="opacity:0.46700003000000001;fill:#c33a1a;fill-opacity:1;fill-rule:nonzero;stroke:none"
       d="m 318.79291,259.28708 0,-54.12155 2.5,0 2.5,0 0,51.12242 0,51.12243 20.44643,-0.23398 c 21.82658,-0.24976 21.34869,-0.23737 21.32096,-0.55254 -0.0101,-0.11458 -1.40808,-1.33333 -3.10666,-2.70833 -7.28188,-5.89469 -14.6902,-13.85747 -17.75287,-19.08156 -3.49022,-5.95336 -5.90549,-12.56036 -6.85408,-18.74937 -0.85454,-5.57541 -0.48259,-15.69116 0.74293,-20.20478 2.27052,-8.36243 5.43281,-14.7723 10.4864,-21.25562 7.08739,-9.0925 15.59977,-14.77186 27.59013,-18.40781 3.65675,-1.10887 3.91621,-1.13593 12.5559,-1.30981 5.82736,-0.11727 9.64617,-0.0377 11.25,0.23429 6.07575,1.03055 15.11064,4.86469 20.64229,8.75998 3.91456,2.75656 11.05734,10.15346 13.80912,14.3004 4.42015,6.66116 7.1081,13.10984 8.41087,20.17857 0.77026,4.17934 0.84178,14.55969 0.12796,18.57143 -1.1366,6.38784 -4.14933,13.92428 -7.63816,19.10714 -3.5659,5.29735 -12.10625,14.22282 -15.97555,16.69596 -2.51029,1.6045 -8.55555,4.63515 -11.86342,5.94745 -6.37281,2.52823 -11.89604,2.88296 -61.51367,3.95079 -9.23215,0.19869 -19.23661,0.45008 -22.23215,0.55865 l -5.44643,0.19739 0,-54.12155 z m 80.35715,47.52313 c 6.82038,-0.86383 14.29986,-3.91248 20.43355,-8.32877 3.70061,-2.66446 9.28778,-8.47566 11.81817,-12.29203 3.6999,-5.58023 6.48036,-12.32947 7.79942,-18.93215 0.62129,-3.10992 0.61075,-17.25932 -0.015,-20.12744 -1.35763,-6.22287 -3.65204,-11.71905 -6.9327,-16.60714 -2.30412,-3.43307 -11.39922,-12.50102 -14.8024,-14.75823 -5.17152,-3.43008 -11.94835,-6.08576 -17.15961,-6.72446 -1.81035,-0.22188 -6.60629,-0.31066 -11.49858,-0.21285 -7.65723,0.15309 -8.70588,0.25134 -11.96428,1.12098 -4.8478,1.29384 -11.42105,4.56197 -15.77566,7.84346 -9.70728,7.31507 -15.61922,16.49811 -18.54274,28.80252 -0.86572,3.64359 -1.09171,15.73058 -0.37834,20.23465 1.63415,10.31759 6.62184,19.55012 14.68306,27.17923 7.90669,7.48288 16.04998,11.53505 26.26368,13.06904 2.23267,0.33532 12.68767,0.16175 16.07143,-0.26681 l 0,0 z"
       id="path4026"
       inkscape:connector-curvature="0"
       inkscape:export-filename="/home/franco/Desktop/logo.png"
       inkscape:export-xdpi="90"
       inkscape:export-ydpi="90" />
  </g>
</svg>
